<svg id="图层_1" data-name="图层 1" xmlns="http://www.w3.org/2000/svg" width="1920" height="1080" viewBox="0 0 1920 1080"><defs><style>.cls-1{fill:#f5f7f9;}</style></defs><title>加载</title><path class="cls-1" d="M320,110v970H1920V110Zm790,928H360V565.24h750Zm0-492.76H360v-400h750ZM1880,1038H1130V565.24h750Zm0-492.76H1130v-400h750Z"/><circle class="cls-1" cx="385" cy="54" r="24"/><circle class="cls-1" cx="485" cy="54" r="24"/><circle class="cls-1" cx="585" cy="54" r="24"/><circle class="cls-1" cx="685" cy="54" r="24"/><circle class="cls-1" cx="785" cy="54" r="24"/><rect class="cls-1" width="320" height="110"/><rect class="cls-1" x="1756" y="40" width="120" height="26"/><rect class="cls-1" x="1710" y="40" width="26" height="26"/><circle class="cls-1" cx="73" cy="175" r="12"/><rect class="cls-1" x="105" y="162" width="120" height="26"/><circle class="cls-1" cx="73" cy="255" r="12"/><rect class="cls-1" x="105" y="242" width="120" height="26"/><circle class="cls-1" cx="73" cy="335" r="12"/><rect class="cls-1" x="105" y="322" width="120" height="26"/><circle class="cls-1" cx="73" cy="415" r="12"/><rect class="cls-1" x="105" y="402" width="120" height="26"/><circle class="cls-1" cx="73" cy="495" r="12"/><rect class="cls-1" x="105" y="482" width="120" height="26"/><circle class="cls-1" cx="73" cy="575" r="12"/><rect class="cls-1" x="105" y="562" width="120" height="26"/><path class="cls-1" d="M831.67,339a112,112,0,0,0-112-112H719V339.67H831.66C831.66,339.44,831.67,339.22,831.67,339Z"/><path class="cls-1" d="M709.67,449a100,100,0,0,0,100-99.33H709V249a100,100,0,0,0,.67,200Z"/><rect class="cls-1" x="1374.5" y="262.5" width="20" height="174"/><rect class="cls-1" x="1444.5" y="310.5" width="20" height="126"/><rect class="cls-1" x="1514.5" y="355" width="20" height="81.5"/><rect class="cls-1" x="1584.5" y="276" width="20" height="160.5"/><polygon class="cls-1" points="579.5 801.15 648.61 834.33 649.29 835.59 650.22 835.1 650.73 835.35 651.07 834.65 763.9 774.63 811.3 856.73 811 857.13 811.92 857.8 813.75 860.97 815.15 860.16 817.99 862.24 923.77 717.74 992.73 750.85 996.5 743 928.9 710.55 922 705.5 921.06 706.79 920.73 706.63 919.88 708.4 817.08 848.84 768.7 765.04 768.22 765.32 767.37 763.73 650.8 825.73 578.73 791.13 577.97 792.72 577.29 792.04 479.71 889.62 485.37 895.28 579.5 801.15"/><path class="cls-1" d="M1699,807c-44-4-27-68.66-68-83.66S1601.62,808,1554,809c-40.67.88-49.63-128.49-86-127-37.09,1.52-20.59,120.4-71,90.34-102.59-61.17-84.29,56.17-114,94L1743,861C1721,856,1743,811,1699,807Z"/></svg>