<?xml version="1.0" standalone="no"?>
<!DOCTYPE svg PUBLIC "-//W3C//DTD SVG 1.1//EN" "http://www.w3.org/Graphics/SVG/1.1/DTD/svg11.dtd" >
<!--
2013-9-30: Created.
-->
<svg>
<metadata>
Created by iconfont
</metadata>
<defs>

<font id="edui-notadd" horiz-adv-x="1024" >
  <font-face
    font-family="edui-notadd"
    font-weight="500"
    font-stretch="normal"
    units-per-em="1024"
    ascent="896"
    descent="-128"
    x-height="792"
    bbox="0 -247 1463 896"
    underline-thickness="0"
    underline-position="0"
    unicode-range="U+0078-E67B"
  />
    <missing-glyph />
    
    <glyph glyph-name="x" unicode="x" horiz-adv-x="1001"
d="M281 543q-27 -1 -53 -1h-83q-18 0 -36.5 -6t-32.5 -18.5t-23 -32t-9 -45.5v-76h912v41q0 16 -0.5 30t-0.5 18q0 13 -5 29t-17 29.5t-31.5 22.5t-49.5 9h-133v-97h-438v97zM955 310v-52q0 -23 0.5 -52t0.5 -58t-10.5 -47.5t-26 -30t-33 -16t-31.5 -4.5q-14 -1 -29.5 -0.5
t-29.5 0.5h-32l-45 128h-439l-44 -128h-29h-34q-20 0 -45 1q-25 0 -41 9.5t-25.5 23t-13.5 29.5t-4 30v167h911zM163 247q-12 0 -21 -8.5t-9 -21.5t9 -21.5t21 -8.5q13 0 22 8.5t9 21.5t-9 21.5t-22 8.5zM316 123q-8 -26 -14 -48q-5 -19 -10.5 -37t-7.5 -25t-3 -15t1 -14.5
t9.5 -10.5t21.5 -4h37h67h81h80h64h36q23 0 34 12t2 38q-5 13 -9.5 30.5t-9.5 34.5q-5 19 -11 39h-368zM336 498v228q0 11 2.5 23t10 21.5t20.5 15.5t34 6h188q31 0 51.5 -14.5t20.5 -52.5v-227h-327z" />
    

    
    <glyph glyph-name="close" unicode="&#58964;" d="M960 742.4l-89.6 89.6-358.4-358.4-358.4 358.4-89.6-89.6 358.4-358.4-358.4-358.4 89.6-89.6 358.4 358.4 358.4-358.4 89.6 89.6-358.4 358.4 358.4 358.4z"  horiz-adv-x="1024" />

    
    <glyph glyph-name="italic" unicode="&#58925;" d="M384 832v-64h128L384 0H256v-64h384v64H512l128 768h128V832z"  horiz-adv-x="1024" />

    
    <glyph glyph-name="insertcaption" unicode="&#58967;" d="M576 896v-448h448v448zM960 640h-128v-128h-64v128h-128v64h128v128h64v-128h128zM997.12 448h-997.12v-576h1024v576zM60.16-64v256h259.84v-256zM542.080-64h-158.080v256h256v-256zM963.84-64h-259.84v256h259.84zM448 896h-448v-64h192v-384h64v384h192v64z"  horiz-adv-x="1024" />

    
    <glyph glyph-name="insertparagraph" unicode="&#58926;" d="M997.12 896h-997.12v-576h1024v576zM60.16 384v256h259.84v-256zM542.080 384h-158.080v256h256v-256zM963.84 384h-259.84v256h259.84zM448 320h-448v-64h192v-384h64v384h192v64z"  horiz-adv-x="1024" />

    
    <glyph glyph-name="inserttitlecol" unicode="&#58969;" d="M64-64v128h-64v-192h192v64h-128zM448-128h576v1024h-576zM960 192v-256h-192v256zM704 192v-256h-192v256zM960 512v-256h-192v256zM704 512v-256h-192v256zM960 832v-256h-192v256zM704 832v-256h-192v256zM64 384h128v64h-192v-192h64v128zM384 384v-128h64v192h-192v-64h128zM384-64h-128v-64h192v192h-64v-128zM64-64v128h-64v-192h192v64h-128zM448-128h576v1024h-576zM960 192v-256h-192v256zM704 192v-256h-192v256zM960 512v-256h-192v256zM704 512v-256h-192v256zM960 832v-256h-192v256zM704 832v-256h-192v256zM64 384h128v64h-192v-192h64v128zM384 384v-128h64v192h-192v-64h128zM384-64h-128v-64h192v192h-64v-128zM0 448h448v448h-448zM256 832v-128h128v-64h-128v-128h-64v128h-128v64h128v128z"  horiz-adv-x="1024" />

    
    <glyph glyph-name="insertimage" unicode="&#58903;" d="M350.080 360.96l128-192 263.68 430.080 156.16-256v-23.040h64v458.88c0 0.010 0 0.023 0 0.035 0 29.337-23.783 53.12-53.12 53.12-0.675 0-1.347-0.013-2.017-0.038l-853.663 0.003c-29.337 0-53.12-23.783-53.12-53.12v-727.040c0-28.63 23.21-51.84 51.84-51.84 0 0 0 0 0 0h588.16v64h-485.12zM296.96 711.68c-0.034-0-0.033-0-0.032-0-118.007-53.154-65.211-0.36 0 0zM1024 192h-192v192h-64v-192h-192v-64h192v-192h64v192h192v64z"  horiz-adv-x="1024" />

    
    <glyph glyph-name="previousstep" unicode="&#58928;" d="M483.84 0c-9.271 0.086-17.958 2.506-25.527 6.698l-3.273-0.298-368 332.8c-13.235 9.399-22.074 24.243-23.235 41.197 0.134-1.173 0.1-0.024 0.1 1.134 0 18.444 8.766 34.84 22.359 45.25l371.336 328.42c8.13 7.803 19.143 12.656 31.289 12.811-0.567-0.011-0.565-0.011-0.563-0.011 15.34 0 28.71-8.432 35.728-20.914 4.536-8.376 7.142-18.094 7.146-28.419l-0-191.946h29.44c34.754-0.054 68.438-4.531 100.552-12.9 60.101-15.232 114.839-46.015 159.094-87.786 24.409-12.831 74.63-78.825 101.032-155.877 11.808-7.806 39.215-98.972 43.624-196.13-3.497 49.062-2.666 43.42-2.666 37.584 0-13.892-4.709-26.684-12.617-36.868-7.167-8.081-17.718-13.251-29.479-13.305-18.37 1.665-34.085 12.269-42.803 27.412-24.444 39.773-60.939 71.608-104.398 90.375-0.074 8.386-50.308 30.081-105.051 37.675 15.832 0.434-31.071 8.408-79.837 8.408-1.776 0-3.549-0.011-5.32-0.032l-48.371 0.003v-161.28c0.493-3.088 0.775-6.648 0.775-10.274 0-15.423-5.098-29.655-13.702-41.102-7.798-8.019-18.891-13.106-31.173-13.106-2.28 0-4.519 0.175-6.704 0.513zM145.28 384l312.96-281.6v148.48c7.245 27.987 32.273 48.324 62.050 48.324 2.264 0 4.501-0.118 6.705-0.347l52.844 0.023c1.379 0.014 3.008 0.021 4.64 0.021 58.359 0 114.417-9.85 166.603-27.978 61.993-22.007 117.34-60.173 160.325-109.408l-43.568 42.646c-22.699 92.319-79.174 168.698-155.264 216.901-21.633 14.132-81.989 33.984-146.982 33.984-0.617 0-1.233-0.002-1.849-0.005-4.98 0.383-10.897 0.6-16.865 0.6-5.968 0-11.885-0.218-17.744-0.646l-12.016 0.046c-0.636-0.025-1.382-0.040-2.131-0.040-19.528 0-36.761 9.827-47.023 24.805-5.559 8.317-8.91 18.241-9.215 28.927l0.13 152.388z"  horiz-adv-x="1024" />

    
    <glyph glyph-name="nextstep" unicode="&#58929;" d="M506.88 15.36c-8.477 11.272-13.575 25.504-13.575 40.926 0 3.626 0.282 7.186 0.825 10.66l-0.050 159.614h-48.64c-1.501 0.019-3.275 0.029-5.051 0.029-48.766 0-95.669-7.974-139.477-22.689-50.006-17.279-94.98-47.496-130.256-86.627 4.899 12.591-24.587-25.889-40.469-70.797 10.925 27.391-5.086 17.214-23.542 16.13-10.253 0.213-20.784 5.419-27.986 13.621-9.722 10.595-15.716 24.869-15.716 40.544 0 3.971 0.385 7.852 1.119 11.608 13.646 97.38 48.926 184.899 100.832 260.053 10.486 22.71 71.898 78.958 145.81 112.475-16.158-3.265 43.015 19.543 107.047 25.738-22.32-1.169 11.377 3.266 46.109 3.274l28.94-0v192c0.014 10.328 2.629 20.042 7.223 28.527 7.288 10.538 19.676 17.6 33.714 17.6 0.683 0 1.363-0.017 2.038-0.050 12.071-0.314 23.014-5.3 31.061-13.22l370.124-327.897c13.729-10.51 22.495-26.906 22.495-45.35 0-1.157-0.035-2.307-0.103-3.447-1.522-16.856-10.584-31.479-23.778-40.507l-366.614-329.256h-3.84c-7.316-4.007-16.024-6.375-25.284-6.402-0.212-0.022-0.839-0.035-1.47-0.035-12.377 0-23.547 5.166-31.471 13.46zM565.12 661.12v-154.24c-0.823-10.739-4.61-20.458-10.535-28.506-8.813-12.907-26.046-22.734-45.574-22.734-0.75 0-1.496 0.014-2.238 0.043l-9.493-0.003c-5.075 0.382-10.992 0.6-16.96 0.6-5.968 0-11.885-0.218-17.744-0.646 0.263 0.049-0.353 0.051-0.97 0.051-64.993 0-125.349-19.852-175.335-53.823-70.569-55.034-119.949-136.478-133.177-229.562l15.866 40.18c50.614 39.788 112.633 67.349 180.391 77.216-20.185 0.726 36.912 11.038 96.409 11.112l50.881-0.008c1.928 0.206 4.165 0.324 6.43 0.324 29.778 0 54.806-20.337 61.952-47.879l0.098-150.845 313.6 281.6z"  horiz-adv-x="1024" />

    
    <glyph glyph-name="scaleboard" unicode="&#58930;" d="M374.935 244.376c-6.461 7.093-15.736 11.526-26.046 11.526-0.291 0-0.581-0.004-0.87-0.011l-308.991 0.001c-21.495-0.701-38.694-18.129-39.029-39.649l-0-24.333c2.003-21.281 19.78-37.802 41.416-37.802 0.736 0 1.467 0.019 2.194 0.057l163.053-0.004-186.828-190.667c-9.538-9.598-15.433-22.825-15.433-37.43s5.895-27.832 15.436-37.432c9.39-9.462 22.404-15.321 36.787-15.321 14.383 0 27.397 5.859 36.787 15.32l186.831 188.111v-165.074c-0.014-0.383-0.022-0.833-0.022-1.285 0-20.631 16.551-37.397 37.099-37.744l26.905-0c0.983-0.094 2.125-0.148 3.279-0.148 19.293 0 35.087 14.981 36.384 33.945l0.006 309.786c0.069 0.841 0.108 1.82 0.108 2.809 0 9.24-3.436 17.677-9.1 24.104zM383.893 570.045v291.758c-0.898 19.073-16.579 34.196-35.793 34.196-1.592 0-3.16-0.104-4.697-0.305l-27.971 0.019c-0.015 0-0.032 0-0.050 0-20.495 0-37.11-16.615-37.11-37.11 0-0.675 0.018-1.346 0.054-2.012l-0.004-166.261-184.269 184.269c-9.289 9.429-22.197 15.27-36.47 15.27s-27.18-5.841-36.464-15.264c-9.318-9.469-15.067-22.461-15.067-36.796 0-14.335 5.749-27.327 15.067-36.797l184.262-184.262h-161.875c-0.387 0.013-0.842 0.020-1.298 0.020-22.879 0-41.508-18.195-42.208-40.904l-0.002-26.937c1.642-20.273 18.063-36.222 38.394-37.111l310.308 0.001c0.233-0.006 0.508-0.009 0.784-0.009 10.002 0 19.029 4.173 25.436 10.873 5.684 6.325 9.152 14.716 9.152 23.917 0 1.271-0.066 2.526-0.195 3.763l0.013 19.040zM648.779 523.338c6.421-6.724 15.456-10.905 25.467-10.905 0.494 0 0.986 0.010 1.475 0.030l308.964-0.002c21.282 0.686 38.357 17.77 39.028 38.991l0.001 24.351c-2.003 21.281-19.78 37.802-41.416 37.802-0.736 0-1.467-0.019-2.194-0.057l-163.053 0.004 186.828 187.468c9.538 9.598 15.433 22.825 15.433 37.43s-5.895 27.832-15.436 37.432c-9.39 9.462-22.404 15.321-36.787 15.321-14.383 0-27.397-5.859-36.787-15.32l-186.831-184.912v165.074c0.032 0.579 0.050 1.257 0.050 1.94 0 20.416-16.207 37.047-36.457 37.728l-26.935 0.002c-1.164 0.132-2.513 0.207-3.879 0.207-19.539 0-35.49-15.366-36.426-34.673l-0.003-309.757c-0.069-0.841-0.108-1.82-0.108-2.809 0-9.24 3.436-17.677 9.1-24.104zM639.821 197.669v-291.119c0.998-18.987 16.637-34.005 35.784-34.005 0.917 0 1.826 0.034 2.726 0.102l28.032-0.007c0.015-0 0.032-0 0.050-0 20.495 0 37.11 16.615 37.11 37.11 0 0.675-0.018 1.346-0.054 2.012l0.004 166.261 185.548-184.269c9.289-9.429 22.197-15.27 36.47-15.27s27.18 5.841 36.464 15.264c9.318 9.469 15.067 22.461 15.067 36.796 0 14.335-5.749 27.327-15.067 36.797l-183.622 183.622h161.875c0.387-0.013 0.842-0.020 1.298-0.020 22.879 0 41.508 18.195 42.208 40.904l0.002 26.937c-0.666 21.074-17.41 38.028-38.335 39.027l-309.728 0.002c-0.233 0.006-0.508 0.009-0.784 0.009-10.002 0-19.029-4.173-25.436-10.873-5.651-6.317-9.098-14.684-9.098-23.857 0-1.066 0.047-2.121 0.138-3.164l-0.010-19.059z"  horiz-adv-x="1024" />

    
    <glyph glyph-name="brush" unicode="&#58931;" d="M986.879 611.21l-247.031 249.591c-22.153 21.757-52.546 35.188-86.077 35.188s-63.924-13.431-86.095-35.206l-474.845-476.765c-18.637-14.716-31.089-36.552-33.229-61.336l-59.567-342.489c-0.021-0.846-0.034-1.842-0.034-2.841 0-29.481 10.66-56.473 28.336-77.331 16.942-17.233 40.717-28.021 67.013-28.021 0.915 0 1.826 0.013 2.734 0.039l13.946-0.003 344.308 63.998c24.036 2.986 44.69 15.459 58.416 33.491l472.125 472.091c22.918 21.123 37.224 51.289 37.224 84.797 0 33.508-14.306 63.674-37.144 84.724zM448.018 27.551l-348.788-63.998 60.798 348.148 347.508 351.347 288.63-287.35zM922.881 507.534l-63.998-70.397-291.19 286.71 63.998 63.998c5.716 4.344 12.952 6.96 20.799 6.96s15.083-2.615 20.885-7.022l246.306-249.529c5.572-5.706 9.258-13.277 10.035-21.691 1.485 0.571-3.635-4.548-8.115-9.028z"  horiz-adv-x="1024" />

    
    <glyph glyph-name="background" unicode="&#58973;" d="M988.16 448h-568.32c-19.794 0-35.84-16.046-35.84-35.84 0 0 0 0 0 0v-504.32c0-19.794 16.046-35.84 35.84-35.84h568.96c0 0 0 0 0 0 19.794 0 35.84 16.046 35.84 35.84 0 0 0 0 0 0v504.32c0 0.002 0 0.004 0 0.006 0 19.794-16.046 35.84-35.84 35.84-0.225 0-0.45-0.002-0.674-0.006zM664.32 283.52c-1.074-43.349-36.469-78.080-79.977-78.080-44.183 0-80 35.817-80 80 0 44.175 35.804 79.987 79.976 80 44.338-0.719 80.004-36.829 80.004-81.27 0-0.229-0.001-0.457-0.003-0.685zM929.28-64h-467.84l131.2 205.44 85.12-133.12 177.28 298.24 104.96-178.56v-163.2c-1.040-16.12-14.369-28.8-30.66-28.8-0.021 0-0.042 0-0.063 0zM320 64h-96c-17.673 0-32-14.327-32-32s14.327-32 32-32h96zM320 256h-192c-35.346 0-64 28.654-64 64v448c0 35.346 28.654 64 64 64h640c35.346 0 64-28.654 64-64v-256h64v320c0 35.346-28.654 64-64 64h-768c-35.346 0-64-28.654-64-64v-576c0-35.346 28.654-64 64-64h256z"  horiz-adv-x="1024" />

    
    <glyph glyph-name="strikethrough" unicode="&#58892;" d="M994.56 224c-23.431-29.473-59.162-48.299-99.302-48.649-73.498 0.009-122.138 57.609-127.258 150.409h236.8v52.48h-236.8c7.68 92.8 58.24 150.4 132.48 150.4 35.063-0.422 66.321-16.357 87.286-41.248l28.554 35.488c-28.874 32.657-70.869 53.143-117.65 53.143-0.939 0-1.876-0.008-2.811-0.025-100.339 0.002-176.499-74.238-186.739-197.758h-100.48c26.76 17.48 44.197 47.29 44.197 81.173 0 0.938-0.013 1.873-0.040 2.804 0.003 76.023-59.517 105.463-146.557 105.463h-128v-192h-110.72l-64 192h-58.88l-64-192h-58.24v-52.48h41.6l-64-192h54.4l41.6 136.32h155.52l40.32-131.84h56.96l-64 192h95.36v-192h135.68c95.36 0 161.28 41.6 161.28 128 0.031 0.938 0.048 2.041 0.048 3.148 0 22.888-7.462 44.033-20.087 61.134l52.679-0.282c9.6-126.080 84.48-199.68 186.24-199.68 52.305 0.631 98.632 25.674 128.197 64.243zM433.92 524.8h64c64 0 100.48-18.56 100.48-69.76s-28.16-71.040-101.12-71.040h-64zM172.16 524.8c14.080-49.92 26.88-96.64 42.88-145.28h-87.040c17.28 47.36 31.36 93.44 44.16 144zM236.16 312.32h-128l4.48 14.72h120.96zM620.16 264.96c0-58.24-42.88-85.12-115.84-85.12h-70.4v145.92h154.88c21.122-10.749 35.339-32.326 35.339-57.224 0-1.484-0.050-2.955-0.15-4.414z"  horiz-adv-x="1024" />

    
    <glyph glyph-name="spechars" unicode="&#58883;" d="M954.24-128l-158.72 160c-74.993-63.304-172.734-101.779-279.462-101.779-1.427 0-2.852 0.007-4.275 0.021-2.434-0.062-5.559-0.096-8.691-0.096-105.177 0-201.348 38.558-275.15 102.309l-158.182-160.455-69.76 72.32 160.64 155.52c-60.013 78.679-96.281 178.281-96.653 286.339-0.087 1.262-0.144 5.312-0.144 9.374 0 103.089 36.542 197.643 97.38 271.415l-161.223 156.712 69.76 72.32 158.72-160c77.817 61.889 177.407 99.439 285.753 99.854-0.643 0.007 1.234 0.019 3.114 0.019 105.383 0 201.953-37.734 276.935-100.428l159.958 160.555 69.76-72.32-161.92-157.44c61.004-73.69 98.013-169.18 98.013-273.313 0-3.139-0.034-6.27-0.101-9.393 0.012-0.237 0.014-1.069 0.014-1.901 0-106.863-37.416-204.987-99.861-281.987l163.855-155.326zM512 736c-2.049 0.045-4.464 0.070-6.885 0.070-95.58 0-181.874-39.758-243.247-103.638-62.592-62.161-101.269-148.112-101.269-243.098 0-1.876 0.015-3.748 0.045-5.617-0.010-0.497-0.014-1.417-0.014-2.338 0-96.943 40.213-184.494 104.868-246.882 62.121-65.122 149.43-105.554 246.182-105.554 96.752 0 184.061 40.432 245.952 105.321 64.513 62.767 104.458 150.238 104.458 247.038 0 0.948-0.004 1.895-0.011 2.842 0.048 1.936 0.074 4.389 0.074 6.847 0 95.909-40.57 182.342-105.486 243.074-61.899 63.002-147.752 101.939-242.699 101.939-0.692 0-1.384-0.002-2.075-0.006z"  horiz-adv-x="1024" />

    
    <glyph glyph-name="clearboard" unicode="&#58932;" d="M704 768v128h-384v-128h-320v-64h64v-832h896v832h64v64zM384 832h256v-64h-256zM320-64h-192v576h192zM640-64h-256v576h256zM896-64h-192v576h192zM896 576h-768v128h768z"  horiz-adv-x="1024" />

    
    <glyph glyph-name="bold" unicode="&#58884;" d="M876.8 185.60000000000002c-6.4 51.2-25.6 102.4-57.6 140.8-32 38.4-83.2 70.4-128 76.8 44.8 12.8 76.8 38.4 102.4 76.8 32 38.4 38.4 83.2 38.4 134.4 0 57.6-25.6 121.6-70.4 166.4C710.4 819.2 640 832 576 832H192v-896h384c76.8-6.4 140.8 12.8 211.2 51.2 57.6 44.8 96 121.6 89.6 198.4zM288 742.4h262.4c44.8 0 96-6.4 134.4-38.4 32-25.6 51.2-57.6 44.8-96 0-44.8-12.8-83.2-44.8-115.2-38.4-32-89.6-44.8-134.4-38.4H288V742.4zM768 192c0-51.2-25.6-102.4-70.4-134.4-44.8-25.6-89.6-38.4-140.8-38.4H288V352h275.2c51.2 0 102.4-6.4 147.2-38.4 44.8-25.6 64-76.8 57.6-121.6z"  horiz-adv-x="1024" />

    
    <glyph glyph-name="fullscreen" unicode="&#58966;" d="M960 896h-896c-35.346 0-64-28.654-64-64v-704c0-35.346 28.654-64 64-64h320v-128h-96c-17.673 0-32-14.327-32-32s14.327-32 32-32h448c17.673 0 32 14.327 32 32s-14.327 32-32 32h-96v128h320c35.346 0 64 28.654 64 64v704c0 35.346-28.654 64-64 64zM576-64h-128v128h128zM960 192c0-35.346-28.654-64-64-64h-768c-35.346 0-64 28.654-64 64v576c0 35.346 28.654 64 64 64h768c35.346 0 64-28.654 64-64z"  horiz-adv-x="1024" />

    
    <glyph glyph-name="formatmatch" unicode="&#58893;" d="M128 448v-448l108.8 300.8L396.8 0H896V448zM128 640h768v-64H128zM384 768h256v-128H384z"  horiz-adv-x="1024" />

    
    <glyph glyph-name="underline" unicode="&#58885;" d="M192 0h640v-64H192zM704 832v-384c0-102.4-83.2-192-192-192-102.4 0-192 83.2-192 192V832H192v-384c0-179.2 147.2-320 320-320s320 147.2 320 320V832h-128z"  horiz-adv-x="1024" />

    
    <glyph glyph-name="removeformat" unicode="&#58894;" d="M682.88 832l-682.88-704 170.88-192h398.080l455.040 512zM528 64h-288l-48 56.96 192 227.2 192-227.84z"  horiz-adv-x="1024" />

    
    <glyph glyph-name="blockquote" unicode="&#58895;" d="M401.92 1.7279999999999518v292.48H248.064c-7.36 187.392 65.92 344.96 219.648 472.448L401.856 834.112C218.88 706.56 127.36 511.616 127.36 249.27999999999997v-247.552h274.56z m428.16 0v292.48h-153.728c-7.36 187.392 65.92 344.96 219.648 472.448L830.08 834.112c-182.976-127.616-274.432-322.496-274.432-584.832v-247.552h274.496z"  horiz-adv-x="1024" />

    
    <glyph glyph-name="anchor" unicode="&#58904;" d="M722.56 227.84l76.8-72.32c-69.066-57.593-157.186-94.491-253.698-100.167l30.338 404.167c75.21 27.154 128 97.922 128 181.019 0 106.039-85.961 192-192 192-106.039 0-192-85.961-192-192 0-83.098 52.79-153.865 126.663-180.597l1.337-400.423c-96.583 9.193-182.742 47.773-250.98 106.575l101.86 61.745-298.88 42.88 45.44-280.96 79.36 74.24c103.19-79.877 234.444-128.040 376.947-128.040 2.48 0 4.957 0.015 7.43 0.044 2.030-0.038 4.87-0.058 7.715-0.058 142.963 0 274.192 50.241 376.992 134.031l85.956-82.776 44.16 283.52zM384 640c0 70.692 57.308 128 128 128s128-57.308 128-128c0-70.692-57.308-128-128-128-70.692 0-128 57.308-128 128z"  horiz-adv-x="1024" />

    
    <glyph glyph-name="help" unicode="&#58905;" d="M512 896c-282.77 0-512-229.23-512-512s229.23-512 512-512c282.77 0 512 229.23 512 512 0 282.77-229.23 512-512 512zM512-64c-247.424 0-448 200.576-448 448s200.576 448 448 448c247.424 0 448-200.576 448-448 0-247.424-200.576-448-448-448zM512 256h-64v27.52c4.886 52.070 35.44 96.057 78.726 119.583q60.794 45.537 60.794 88.417c-3.36 32.484-30.587 57.601-63.679 57.601-0.113 0-0.225-0-0.338-0.001q-76.783 0-95.343-87.68l-108.16 20.48c15.836 91.427 94.565 160.079 189.328 160.079 9.749 0 19.329-0.727 28.687-2.129q152.545-7.55 165.985-135.55c-0.314-62.091-36.817-115.582-89.483-140.485-79.833-53.479-142.936-124.653-185.13-208.189zM448 192h128v-128h-128z"  horiz-adv-x="1024" />

    
    <glyph glyph-name="horizontal" unicode="&#58936;" d="M0 448h1024v-128h-1024z"  horiz-adv-x="1024" />

    
    <glyph glyph-name="simpleupload" unicode="&#58906;" d="M128 64l160 320 160-320h-320zM514.56 64l254.72 512 254.72-512h-509.44zM960 832h-896c-35.346 0-64-28.654-64-64v-768c0-35.346 28.654-64 64-64h896c35.346 0 64 28.654 64 64v768c0 35.346-28.654 64-64 64zM960 64c0-35.346-28.654-64-64-64h-768c-35.346 0-64 28.654-64 64v640c0 35.346 28.654 64 64 64h768c35.346 0 64-28.654 64-64z"  horiz-adv-x="1024" />

    
    <glyph glyph-name="indent" unicode="&#58907;" d="M896 480L768 576v-384l128 96L1024 384zM32 768h960c19.2 0 32 12.8 32 32s-12.8 32-32 32H32c-19.2 0-32-12.8-32-32s12.8-32 32-32zM32-64h960c19.2 0 32 12.8 32 32s-12.8 32-32 32H32c-19.2 0-32-12.8-32-32s12.8-32 32-32zM64 448h512c32 0 64 25.6 64 64 0 32-25.6 64-64 64H64c-38.4 0-64-25.6-64-64s25.6-64 64-64zM64 192h512c32 0 64 25.6 64 64 0 32-25.6 64-64 64H64c-32 0-64-25.6-64-64s25.6-64 64-64z"  horiz-adv-x="1024" />

    
    <glyph glyph-name="justifycenter" unicode="&#58908;" d="M992 832H32C12.8 832 0 844.8 0 864S12.8 896 32 896h960c19.2 0 32-12.8 32-32s-12.8-32-32-32zM800 640h-576c-19.2 0-32 12.8-32 32s12.8 32 32 32h576c19.2 0 32-12.8 32-32s-12.8-32-32-32zM992 448H32C12.8 448 0 460.8 0 480S12.8 512 32 512h960c19.2 0 32-12.8 32-32s-12.8-32-32-32zM800 256h-576c-19.2 0-32 12.8-32 32s12.8 32 32 32h576c19.2 0 32-12.8 32-32s-12.8-32-32-32zM992 64H32c-19.2 0-32 12.8-32 32s12.8 32 32 32h960c19.2 0 32-12.8 32-32s-12.8-32-32-32zM800-128h-576c-19.2 0-32 12.8-32 32s12.8 32 32 32h576c19.2 0 32-12.8 32-32s-12.8-32-32-32zM992 448H32C12.8 448 0 460.8 0 480S12.8 512 32 512h960c19.2 0 32-12.8 32-32s-12.8-32-32-32zM800 256h-576c-19.2 0-32 12.8-32 32s12.8 32 32 32h576c19.2 0 32-12.8 32-32s-12.8-32-32-32z"  horiz-adv-x="1024" />

    
    <glyph glyph-name="justifyleft" unicode="&#58909;" d="M992 832H32C12.8 832 0 844.8 0 864S12.8 896 32 896h960c19.2 0 32-12.8 32-32s-12.8-32-32-32zM608 640h-576C12.8 640 0 652.8 0 672S12.8 704 32 704h576c19.2 0 32-12.8 32-32s-12.8-32-32-32zM992 448H32C12.8 448 0 460.8 0 480S12.8 512 32 512h960c19.2 0 32-12.8 32-32s-12.8-32-32-32zM992 64H32c-19.2 0-32 12.8-32 32s12.8 32 32 32h960c19.2 0 32-12.8 32-32s-12.8-32-32-32zM608-128h-576c-19.2 0-32 12.8-32 32s12.8 32 32 32h576c19.2 0 32-12.8 32-32s-12.8-32-32-32zM992 448H32C12.8 448 0 460.8 0 480S12.8 512 32 512h960c19.2 0 32-12.8 32-32s-12.8-32-32-32zM608 256h-576c-19.2 0-32 12.8-32 32S12.8 320 32 320h576c19.2 0 32-12.8 32-32s-12.8-32-32-32z"  horiz-adv-x="1024" />

    
    <glyph glyph-name="justifyjustify" unicode="&#58910;" d="M992 832H32C12.8 832 0 844.8 0 864S12.8 896 32 896h960c19.2 0 32-12.8 32-32s-12.8-32-32-32zM992 640H32C12.8 640 0 652.8 0 672S12.8 704 32 704h960c19.2 0 32-12.8 32-32s-12.8-32-32-32zM992 448H32C12.8 448 0 460.8 0 480S12.8 512 32 512h960c19.2 0 32-12.8 32-32s-12.8-32-32-32zM992 64H32c-19.2 0-32 12.8-32 32s12.8 32 32 32h960c19.2 0 32-12.8 32-32s-12.8-32-32-32zM992-128H32c-19.2 0-32 12.8-32 32s12.8 32 32 32h960c19.2 0 32-12.8 32-32s-12.8-32-32-32zM992 448H32C12.8 448 0 460.8 0 480S12.8 512 32 512h960c19.2 0 32-12.8 32-32s-12.8-32-32-32zM992 256H32c-19.2 0-32 12.8-32 32S12.8 320 32 320h960c19.2 0 32-12.8 32-32s-12.8-32-32-32z"  horiz-adv-x="1024" />

    
    <glyph glyph-name="justifyright" unicode="&#58911;" d="M992 832H32C12.8 832 0 844.8 0 864S12.8 896 32 896h960c19.2 0 32-12.8 32-32s-12.8-32-32-32zM992 640h-576c-19.2 0-32 12.8-32 32s12.8 32 32 32h576c19.2 0 32-12.8 32-32s-12.8-32-32-32zM992 448H32C12.8 448 0 460.8 0 480S12.8 512 32 512h960c19.2 0 32-12.8 32-32s-12.8-32-32-32zM992 64H32c-19.2 0-32 12.8-32 32s12.8 32 32 32h960c19.2 0 32-12.8 32-32s-12.8-32-32-32zM992-128h-576c-19.2 0-32 12.8-32 32s12.8 32 32 32h576c19.2 0 32-12.8 32-32s-12.8-32-32-32zM992 448H32C12.8 448 0 460.8 0 480S12.8 512 32 512h960c19.2 0 32-12.8 32-32s-12.8-32-32-32zM992 256h-576c-19.2 0-32 12.8-32 32s12.8 32 32 32h576c19.2 0 32-12.8 32-32s-12.8-32-32-32z"  horiz-adv-x="1024" />

    
    <glyph glyph-name="link" unicode="&#58912;" d="M759.040 128v124.16c73.167 0 132.48 59.313 132.48 132.48 0 73.167-59.313 132.48-132.48 132.48l-150.4-0c-0.384 0.004-0.839 0.006-1.294 0.006-73.908 0-133.948-59.373-135.025-133.025l-128.001-0.101c2.862 142.002 118.651 256.020 261.070 256.020 1.143 0 2.284-0.007 3.423-0.022l150.227 0.002c1.157 0.018 2.522 0.029 3.89 0.029 142.422 0 258.213-114.023 261.066-255.763-2.853-142.272-118.644-256.295-261.066-256.295-1.368 0-2.733 0.011-4.095 0.031zM415.36 128h-150.4c-1.157-0.018-2.522-0.029-3.89-0.029-142.422 0-258.213 114.023-261.066 255.763 2.853 142.272 118.644 256.295 261.066 256.295 1.368 0 2.733-0.011 4.095-0.031l-0.206-124.158c-0 0-0 0-0 0-73.167 0-132.48-59.313-132.48-132.48 0-73.167 59.313-132.48 132.48-132.48 0 0 0 0 0 0h150.4c0.575-0.009 1.254-0.014 1.933-0.014 73.91 0 133.952 59.378 135.025 133.033l128.001 0.101c-2.857-142.006-118.648-256.029-261.070-256.029-1.368 0-2.733 0.011-4.095 0.031z"  horiz-adv-x="1024" />

    
    <glyph glyph-name="cleardoc" unicode="&#58913;" d="M895.91 639.939h-191.955v199.633c-3.964 31.88-30.89 56.308-63.523 56.308-0.162 0-0.325-0.001-0.487-0.002l-502.257 0c-1.216 0.076-2.637 0.119-4.068 0.119-36.533 0-66.506-28.090-69.498-63.85l-0.017-896.043c3.010-36.014 32.982-64.104 69.515-64.104 1.431 0 2.852 0.043 4.261 0.128l748.43-0.009c1.216-0.076 2.637-0.119 4.068-0.119 36.533 0 66.506 28.090 69.498 63.85l0.017 647.142c-3.664 32.179-30.738 56.948-63.597 56.948-0.136 0-0.273-0-0.409-0.001zM895.91-55.577c-0-4.594-3.724-8.318-8.318-8.318h-749.903c-5.301 0-9.598 4.297-9.598 9.598 0 0 0 0 0 0v877.873c0 4.594 3.724 8.318 8.318 8.318h491.404c0.196 0.012 0.426 0.019 0.657 0.019 6.142 0 11.162-4.808 11.499-10.866l0.001-191.985c3.573-30.12 28.96-53.257 59.75-53.257 1.49 0 2.968 0.054 4.431 0.161l180.242-0.011c0.196 0.012 0.426 0.019 0.657 0.019 6.142 0 11.162-4.808 11.499-10.866l0.001-620.684z"  horiz-adv-x="1024" />

    
    <glyph glyph-name="drafts" unicode="&#58896;" d="M832 576v160c0 17.673-14.327 32-32 32h-224v64c0 35.346-28.654 64-64 64h-128c-35.346 0-64-28.654-64-64v-64h-224c-17.673 0-32-14.327-32-32v-640c0-17.673 14.327-32 32-32h288v-192h448l192 192v512zM384 832h128v-64h-128zM192 704h512v-64h-512zM832-37.76v101.76h101.76zM960 128h-192v-192h-320v576h512z"  horiz-adv-x="1024" />

    
    <glyph glyph-name="subscript" unicode="&#58897;" d="M716.8 76.79999999999995v29.696c0 99.328 160.256 135.68 160.256 179.2 0 16.896-10.752 27.136-32.768 27.136a116.736 116.736 0 0 1-74.24-35.84l-47.104 51.2A170.496 170.496 0 0 0 852.992 384c76.288 0 119.808-40.448 119.808-93.184 0-74.752-95.232-94.72-142.848-141.312H972.8V76.79999999999995zM72.192 175.61599999999999l494.592 494.592a56.832 56.832 0 0 0 78.848 8.704l7.68-7.68a56.832 56.832 0 0 0-8.704-78.848l-494.592-494.592a56.832 56.832 0 0 0-78.848-8.704l-7.68 7.68a56.832 56.832 0 0 0 8.704 78.848zM566.784 97.79200000000003L72.192 592.384a56.832 56.832 0 0 0-8.704 78.848l7.68 7.68a56.832 56.832 0 0 0 78.848-8.704l494.592-494.592a56.832 56.832 0 0 0 8.704-78.848l-7.68-7.68a56.832 56.832 0 0 0-78.848 8.704z"  horiz-adv-x="1024" />

    
    <glyph glyph-name="unlink" unicode="&#58914;" d="M539.417 447.988v127.976c1.652-0.102 3.582-0.16 5.526-0.16 49.558 0 90.285 37.811 94.905 86.159l0.030 19.581c-4.65 48.732-45.377 86.544-94.935 86.544-1.944 0-3.874-0.058-5.789-0.173l-310.717 0.013c-1.652 0.102-3.582 0.16-5.526 0.16-49.558 0-90.285-37.811-94.905-86.159l-0.030-18.942c4.338-49.025 45.209-87.18 94.992-87.18 1.924 0 3.835 0.057 5.73 0.169l-0.261-127.988c-1.945-0.061-4.233-0.096-6.528-0.096-119.961 0-217.703 95.133-221.897 214.072l-0.011 19.58c4.205 119.322 101.947 214.455 221.908 214.455 2.296 0 4.583-0.035 6.862-0.104l310.647 0.008c1.945 0.061 4.233 0.096 6.528 0.096 119.961 0 217.703-95.133 221.897-214.072l0.011-18.94c-3.859-119.604-101.743-215.094-221.929-215.094-2.288 0-4.568 0.035-6.84 0.103zM795.368-127.902h-310.981c-1.945-0.061-4.233-0.096-6.528-0.096-119.961 0-217.703 95.133-221.897 214.072l-0.011 18.94c3.859 119.604 101.743 215.094 221.929 215.094 2.288 0 4.568-0.035 6.84-0.103l-0.333-127.968c-1.652 0.102-3.582 0.16-5.526 0.16-49.558 0-90.285-37.811-94.905-86.159l-0.030-18.942c4.338-49.025 45.209-87.18 94.992-87.18 1.924 0 3.835 0.057 5.73 0.169l311.359-0.012c1.46-0.080 3.169-0.125 4.889-0.125 49.546 0 90.265 37.792 94.902 86.123l0.030 18.943c-4.338 49.025-45.209 87.18-94.992 87.18-1.924 0-3.835-0.057-5.73-0.169l0.261 127.988c1.945 0.061 4.233 0.096 6.528 0.096 119.961 0 217.703-95.133 221.897-214.072l0.011-18.94c-3.859-119.604-101.743-215.094-221.929-215.094-2.288 0-4.568 0.035-6.84 0.103z"  horiz-adv-x="1024" />

    
    <glyph glyph-name="superscript" unicode="&#58898;" d="M716.8 384v29.696c0 99.328 160.256 135.68 160.256 179.2 0 16.896-10.752 27.136-32.768 27.136a116.736 116.736 0 0 1-74.24-35.84l-47.104 51.2A170.496 170.496 0 0 0 852.992 691.2C929.28 691.2 972.8 650.752 972.8 598.0160000000001c0-74.752-95.232-94.72-142.848-141.312H972.8V384zM72.192 175.61599999999999l494.592 494.592a56.832 56.832 0 0 0 78.848 8.704l7.68-7.68a56.832 56.832 0 0 0-8.704-78.848l-494.592-494.592a56.832 56.832 0 0 0-78.848-8.704l-7.68 7.68a56.832 56.832 0 0 0 8.704 78.848zM566.784 97.79200000000003L72.192 592.384a56.832 56.832 0 0 0-8.704 78.848l7.68 7.68a56.832 56.832 0 0 0 78.848-8.704l494.592-494.592a56.832 56.832 0 0 0 8.704-78.848l-7.68-7.68a56.832 56.832 0 0 0-78.848 8.704z"  horiz-adv-x="1024" />

    
    <glyph glyph-name="forecolor" unicode="&#58938;" d="M588.8 832H428.8L192 128h108.8l57.6 166.4h275.2l57.6-166.4H832L588.8 832zM390.4 396.8l102.4 313.6 102.4-313.6H390.4zM192 0h640v-64H192z"  horiz-adv-x="1024" />

    
    <glyph glyph-name="backcolor" unicode="&#58965;" d="M910.594 232.538s-105.392-190.467-105.392-246.973c-0.202-2.447-0.317-5.297-0.317-8.174 0-58.206 47.186-105.392 105.392-105.392 58.206 0 105.392 47.186 105.392 105.392 0 2.877-0.115 5.727-0.341 8.545 0.659 58.674-104.733 246.601-104.733 246.601zM412.839 795.052l-24.126-26.031-121.899 126.978-97.138-100.313 121.899-126.978-291.415-299.034 412.679-426.012 412.679 426.012zM138.566 369.675l275.543 283.797 274.908-283.797z"  horiz-adv-x="1024" />

    
    <glyph glyph-name="touppercase" unicode="&#58915;" d="M295.68 768l-295.68-768h113.28l74.24 192h328.96l71.040-192h116.48l-295.68 768zM242.56 320l92.16 250.88c11.787 26.52 19.084 57.373 20.096 89.81 0.577-50.126 8.010-77.346 19.81-102.083l86.814-238.607zM996.48 83.84v115.84q1.92 120.32-131.2 120.32t-152.32-92.16l67.84-17.92q8.32 55.68 82.56 51.84t64-53.76c-27.154-12.564-58.932-19.893-92.421-19.893-1.709 0-3.413 0.019-5.112 0.057q-122.627-12.164-127.747-101.764t118.4-86.4c3.66-0.341 7.916-0.536 12.216-0.536 40.397 0 76.785 17.169 102.263 44.608 0.399-15.437 7.943-29.137 19.476-37.823l69.565 0.151c-17.207 18.277-27.781 42.967-27.781 70.127 0 2.573 0.095 5.124 0.281 7.65zM926.72 128q-6.4-64-95.36-71.68-56.96 0-55.040 32t67.84 44.16c0.513-0.006 1.118-0.010 1.724-0.010 30.022 0 57.98 8.834 81.418 24.044zM949.76 512h74.24c-15.36 106.88-232.32 128-311.040 128v128l-200.96-160 200.32-160v120.96c2.461 0.045 5.363 0.070 8.271 0.070 83.861 0 162.791-21.112 231.766-58.31z"  horiz-adv-x="1024" />

    
    <glyph glyph-name="tolowercase" unicode="&#58916;" d="M295.68 768l-295.68-768h113.28l74.24 192h328.96l71.040-192h116.48l-295.68 768zM242.56 320l92.16 250.88c11.787 26.52 19.084 57.373 20.096 89.81 0.577-50.126 8.010-77.346 19.81-102.083l86.814-238.607zM996.48 83.84v115.84q1.92 120.32-131.2 120.32t-152.32-92.16l67.84-17.92q8.32 55.68 82.56 51.84t64-53.76c-27.154-12.564-58.932-19.893-92.421-19.893-1.709 0-3.413 0.019-5.112 0.057q-122.627-12.164-127.747-101.764t118.4-86.4c3.66-0.341 7.916-0.536 12.216-0.536 40.397 0 76.785 17.169 102.263 44.608 0.399-15.437 7.943-29.137 19.476-37.823l69.565 0.151c-17.207 18.277-27.781 42.967-27.781 70.127 0 2.573 0.095 5.124 0.281 7.65zM926.72 128q-6.4-64-95.36-71.68-56.96 0-55.040 32t67.84 44.16c0.513-0.006 1.118-0.010 1.724-0.010 30.022 0 57.98 8.834 81.418 24.044zM586.24 512h-74.24c15.36 106.88 232.32 128 311.040 128v128l200.96-160-200.96-160v120.96c-2.276 0.038-4.96 0.060-7.65 0.060-83.854 0-162.777-21.108-231.747-58.3z"  horiz-adv-x="1024" />

    
    <glyph glyph-name="insertvideo" unicode="&#58919;" d="M384 128l256 256-256 256v-512zM960 832h-896c-35.346 0-64-28.654-64-64v-768c0-35.346 28.654-64 64-64h896c35.346 0 64 28.654 64 64v768c0 35.346-28.654 64-64 64zM960 0h-896v768h896z"  horiz-adv-x="1024" />

    
    <glyph glyph-name="emotion" unicode="&#58886;" d="M512 896c-282.77 0-512-229.23-512-512s229.23-512 512-512c282.77 0 512 229.23 512 512 0 282.77-229.23 512-512 512zM512-64c-247.424 0-448 200.576-448 448s200.576 448 448 448c247.424 0 448-200.576 448-448 0-247.424-200.576-448-448-448zM256 512c0-35.346 28.654-64 64-64s64 28.654 64 64c0 35.346-28.654 64-64 64-35.346 0-64-28.654-64-64zM640 512c0-35.346 28.654-64 64-64s64 28.654 64 64c0 35.346-28.654 64-64 64-35.346 0-64-28.654-64-64zM512 64c141.385 0 256 114.615 256 256h-512c0-141.385 114.615-256 256-256z"  horiz-adv-x="1024" />

    
    <glyph glyph-name="pasteplain" unicode="&#58899;" d="M640 640v128h-64v64c0 35.346-28.654 64-64 64h-192c-35.346 0-64-28.654-64-64v-64h-64v-128zM320 832h192v-64h-192zM832 512v224c-0.704 17.824-15.323 32.007-33.256 32.007-0.234 0-0.467-0.002-0.699-0.007l-94.045 0.001v-64h64v-64h-64v-64h-576v192h-94.080c-0.198 0.004-0.431 0.007-0.664 0.007-17.932 0-32.552-14.183-33.254-31.943l-0.002-736.064h384v-128h640v640zM448-64v512h512v-512zM576 320h320v-64h-320zM704 256h64v-256h-64zM704 704h64v-128h-64z"  horiz-adv-x="1024" />

    
    <glyph glyph-name="preview" unicode="&#58939;" d="M895.91 639.939h-191.955v199.633c-3.964 31.88-30.89 56.308-63.523 56.308-0.162 0-0.325-0.001-0.487-0.002l-502.257 0c-1.216 0.076-2.637 0.119-4.068 0.119-36.533 0-66.506-28.090-69.498-63.85l-0.017-896.043c3.010-36.014 32.982-64.104 69.515-64.104 1.431 0 2.852 0.043 4.261 0.128l748.43-0.009c1.216-0.076 2.637-0.119 4.068-0.119 36.533 0 66.506 28.090 69.498 63.85l0.017 647.142c-3.664 32.179-30.738 56.948-63.597 56.948-0.136 0-0.273-0-0.409-0.001zM895.91-55.577c-0-4.594-3.724-8.318-8.318-8.318h-749.903c-5.301 0-9.598 4.297-9.598 9.598 0 0 0 0 0 0v877.873c0 4.594 3.724 8.318 8.318 8.318h491.404c0.196 0.012 0.426 0.019 0.657 0.019 6.142 0 11.162-4.808 11.499-10.866l0.001-191.985c3.573-30.12 28.96-53.257 59.75-53.257 1.49 0 2.968 0.054 4.431 0.161l180.242-0.011c0.196 0.012 0.426 0.019 0.657 0.019 6.142 0 11.162-4.808 11.499-10.866l0.001-620.684zM767.94 45.519l-173.399 172.759c11.267 14.903 21.003 31.929 28.429 50.141l99.541-268.33zM256.060 352.007c-0 88.345 71.618 159.962 159.962 159.962s159.962-71.618 159.962-159.962c0-88.345-71.618-159.962-159.962-159.962-88.345 0-159.962 71.618-159.962 159.962z"  horiz-adv-x="1024" />

    
    <glyph glyph-name="print" unicode="&#58940;" d="M320.006 448h384v-64h-384zM320.006 320h384v-64h-384zM988.806 716.8h-156.8v179.2h-640v-179.2h-156.8c-0.002 0-0.004 0-0.006 0-19.44 0-35.2-15.76-35.2-35.2 0-0.225 0.002-0.45 0.006-0.674l-0-443.486h192v-45.44l256-256h384v301.44h192v311.68c0.032 0.574 0.051 1.245 0.051 1.92s-0.018 1.346-0.055 2.013l0.004 127.907c0.004 0.19 0.006 0.415 0.006 0.64 0 19.44-15.76 35.2-35.2 35.2-0.002 0-0.004-0-0.006-0zM256.006 832h512v-115.2h-512zM896.006 320h-56.96v120.32h-71.040v-440.32h-296.96v199.040h-215.040v241.28h-68.48v-120.32h-59.52v192h768zM928.006 594.56c-0.19-0.004-0.415-0.006-0.64-0.006-18.027 0-32.64 14.613-32.64 32.64 0 18.027 14.613 32.64 32.64 32.64 18.024 0 32.636-14.61 32.64-32.633 0.004-0.191 0.006-0.415 0.006-0.64 0-17.673-14.327-32-32-32-0.002 0-0.005 0-0.007 0z"  horiz-adv-x="1024" />

    
    <glyph glyph-name="searchreplace" unicode="&#58974;" d="M855.040 896h-855.040v-1024h1024v680.96zM512 768h128v-256h-128zM768-64h-512v320h512zM960 448v-512h-128v384h-640v-384h-128v896h128v-384h512v384h64l192-320z"  horiz-adv-x="1024" />

    
    <glyph glyph-name="selectall" unicode="&#58900;" d="M184.32 782.080l113.92 113.92h-40.32l-113.92-113.92h40.32zM113.92 752l-113.92-113.92v-40.32l113.92 113.92v40.32zM144 896l-144-144v-40.32l184.32 184.32h-40.32zM30.72 896l-30.72-30.72v-40.32l71.040 71.040h-40.32zM527.36 782.080l113.92 113.92h-40.32l-113.28-113.92h39.68zM113.92 408.32l-113.92-113.28v-40.32l113.92 113.92v39.68zM113.92 522.24l-113.92-113.92v-39.68l113.92 113.28v40.32zM414.080 782.080l113.28 113.92h-39.68l-113.92-113.92h40.32zM300.16 782.080l113.92 113.92h-40.32l-113.92-113.92h40.32zM113.92 636.16l-113.92-113.92v-40.32l113.92 113.92v40.32zM113.92 60.8l-113.92-113.28v-40.32l113.92 113.28v40.32zM875.52 782.080l113.28 113.92h-40.32l-113.28-113.92h40.32zM113.92 174.72l-113.92-113.92v-40.32l113.92 113.92v40.32zM761.6 782.080l113.92 113.92h-40.32l-113.92-113.92h40.32zM113.92 288.64l-113.92-113.92v-40.32l113.92 113.92v40.32zM647.68 782.080l113.92 113.92h-40.32l-113.92-113.92h40.32zM910.080 476.8l113.92 113.92v40.32l-113.92-113.92v-40.32zM378.88-14.080l-113.92-113.92h40.32l113.92 113.92h-40.32zM910.080 590.72l113.92 113.28v40.32l-113.92-113.28v-40.32zM264.96-14.080l-113.28-113.92h40.32l113.28 113.92h-40.32zM151.68-14.080l-113.92-113.92h40.32l113.92 113.92h-40.32zM910.080 744.32v-40.32l113.92 113.92v40.32l-113.92-113.92zM910.080 136.96l113.92 113.92v40.32l-113.92-113.92v-40.32zM718.72-14.080l-113.92-113.92h40.32l113.92 113.92h-40.32zM910.080 250.88l113.92 113.92v40.32l-113.92-113.92v-40.32zM604.8-14.080l-113.92-113.92h40.32l113.92 113.92h-40.32zM490.88-14.080l-113.92-113.92h40.32l113.92 113.92h-40.32zM910.080 364.8l113.92 113.92v40.32l-113.92-113.92v-40.32zM988.16-128l35.84 35.84v40.32l-76.16-76.16h40.32zM874.24-128l149.76 149.76v40.32l-190.080-190.080h40.32zM833.92-14.080l-113.28-113.92h39.68l113.92 113.92h-40.32zM910.080 21.76l113.92 113.92v39.68l-113.92-113.28v-40.32zM256 265.6q7.040-137.6 186.24-137.6c5.836-0.542 12.621-0.851 19.478-0.851 64.527 0 122.663 27.362 163.439 71.117 0.443-24.781 12.479-46.819 30.964-60.763l111.879 0.097c-27.64 29.266-44.63 68.846-44.63 112.395 0 4.366 0.171 8.692 0.506 12.971l-0.036 185.034q3.2 192-211.84 192t-242.56-147.2l108.8-28.8q13.44 89.6 133.76 83.2 112 6.4 101.76-86.4c-43.614-20.262-94.671-32.082-148.489-32.082-2.697 0-5.387 0.030-8.070 0.089q-198-19.207-201.2-163.207zM611.84 377.6v-44.8q-10.24-105.6-152.32-115.2-91.52 0-88.32 51.2-6.4 60.8 108.8 70.4c0.479-0.003 1.045-0.005 1.611-0.005 48.398 0 93.45 14.326 131.147 38.969z"  horiz-adv-x="1024" />

    
    <glyph glyph-name="mergecells" unicode="&#58941;" d="M0 896v-1024h1024v1024zM320-64h-256v256h256zM320 256h-256v256h256zM320 576h-256v256h256zM384 832h256v-256h-256zM960-64h-576v576h576zM960 576h-256v256h256z"  horiz-adv-x="1024" />

    
    <glyph glyph-name="deletecol" unicode="&#58942;" d="M1024 588.16v307.84h-256v-576h256zM832 640v192h128v-192zM832 384v192h128v-192zM448 588.16v307.84h-448v-576h448zM64 640v192h128v-192zM256 640v192h128v-192zM64 384v192h128v-192zM256 384v192h128v-192zM640 192v68.48l-69.76-68.48h69.76zM593.28 187.52zM640 384v-136.32l64 34.56v357.76h-192v-352l64-32v128zM576 448v128h64v-128zM734.72-128l96.64 92.8-127.36 122.24 128 122.88-96 92.16-32-19.84v-154.24h-192v160l-32 14.080-96-92.16 128-122.88-127.36-122.24 96-92.8 127.36 122.24 126.72-122.24zM512 192h76.8l-76.8 74.24v-74.24z"  horiz-adv-x="1024" />

    
    <glyph glyph-name="deleterow" unicode="&#58943;" d="M307.84 896h-307.84v-256h576v256zM256 704h-192v128h192zM512 704h-192v128h192zM307.84 320h-307.84v-448h576v448zM256-64h-192v128h192zM256 128h-192v128h192zM512-64h-192v128h192zM512 128h-192v128h192zM716.8 535.68h-68.48l68.48-70.4v70.4zM708.48 465.28zM520.96 551.040h128l-34.56 35.84h-358.4v-219.52h352l32 35.84h-119.040zM448 448h-131.84v64h131.84zM1024 607.36l-92.8 96-122.24-127.36-122.88 128-92.16-96 19.84-21.12h137.6v-219.52h-143.36l-14.080-15.36 92.16-96 122.88 128 122.24-127.36 92.8 96.64-122.24 126.72 122.24 127.36zM716.8 403.2v76.8l-74.24-76.8h74.24z"  horiz-adv-x="1024" />

    
    <glyph glyph-name="attachment" unicode="&#58920;" d="M972.16 523.52l-520.32-512c-40.168-39.518-95.315-63.917-156.16-63.917-60.845 0-115.992 24.399-156.19 63.947-40.076 39.269-64.939 93.994-64.939 154.525 0 60.216 24.604 114.685 64.307 153.904l468.502 460.822c26.767 26.283 63.489 42.507 104 42.507s77.233-16.224 104.022-42.529c26.612-26.227 43.112-62.696 43.112-103.018 0-40.323-16.5-76.791-43.117-103.023l-467.857-463.377c-13.401-13.236-31.826-21.411-52.16-21.411s-38.759 8.175-52.168 21.418c-13.309 13.117-21.559 31.351-21.559 51.513 0 20.161 8.25 38.396 21.558 51.511l416.649 411.529-51.84 51.2-416-411.52c-26.634-26.249-43.134-62.717-43.134-103.040s16.5-76.791 43.117-103.023c26.785-26.3 63.506-42.524 104.017-42.524 40.511 0 77.233 16.224 104.022 42.529l468.458 463.338c39.758 39.343 64.377 93.916 64.377 154.24s-24.619 114.897-64.358 154.222c-40.254 39.917-95.659 64.572-156.823 64.572-60.843 0-115.989-24.397-156.186-63.943l-491.49-488.931c-37.461-48.505-60.045-110.166-60.045-177.101 0-80.906 32.995-154.105 86.262-206.877 53.349-51.49 126.039-83.2 206.136-83.2 67.624 0 129.969 22.604 179.89 60.668l547.756 535.151-51.84 51.2z"  horiz-adv-x="1024" />

    
    <glyph glyph-name="music" unicode="&#58944;" d="M991.14 895.112h-7.673c-2.402 0.564-5.16 0.887-7.993 0.887s-5.591-0.323-8.239-0.935l-747.266-134.875c-15.608-1.932-27.64-14.874-28.137-30.724-0.026-0.447-0.041-1.006-0.041-1.568 0-0.562 0.015-1.121 0.046-1.676l-0.003-616.348c-18.531 11.177-40.89 17.823-64.795 17.91-69.781-0.006-127.038-57.264-127.038-127.895 0-70.631 57.258-127.889 127.889-127.889 70.631 0 127.889 57.258 127.889 127.889l-0 511.556c2.687-0.709 5.772-1.116 8.952-1.116s6.265 0.407 9.206 1.172l685.232 123.996v-457.203c-18.531 11.177-40.89 17.823-64.795 17.91-69.747-0.051-126.96-57.291-126.96-127.895 0-70.631 57.258-127.889 127.889-127.889 69.057 0 125.33 54.734 127.804 123.187l0.006 799.532c0 17.658-14.314 31.972-31.972 31.972z"  horiz-adv-x="1024" />

    
    <glyph glyph-name="gmap" unicode="&#58921;" d="M543.36 323.84h128v-144.64c-27.042-18.911-60.614-30.218-96.827-30.218-2.41 0-4.808 0.050-7.194 0.149-135.339-0.011-207.659 89.589-207.659 236.789s83.84 233.6 206.080 233.6c1.985 0.077 4.316 0.121 6.658 0.121 51.625 0 98.258-21.372 131.535-55.751l56.368 63.95c-48.672 47.215-115.142 76.321-188.411 76.321-3.288 0-6.562-0.059-9.822-0.175-2.247 0.102-5.444 0.153-8.653 0.153-164.713 0-298.24-133.527-298.24-298.24 0-7.707 0.292-15.345 0.866-22.905-0.061-201.235 127.939-318.995 303.939-318.995 2.993-0.105 6.51-0.164 10.041-0.164 75.665 0 144.927 27.412 198.397 72.848l-0.438 267.157h-224.64zM896 896h-768c-35.346 0-64-28.654-64-64v-896c0-35.346 28.654-64 64-64h768c35.346 0 64 28.654 64 64v896c0 35.346-28.654 64-64 64zM896 0c0-35.346-28.654-64-64-64h-640c-35.346 0-64 28.654-64 64v768c0 35.346 28.654 64 64 64h640c35.346 0 64-28.654 64-64z"  horiz-adv-x="1024" />

    
    <glyph glyph-name="insertframe" unicode="&#58949;" d="M448 512c-141.385 0-256-114.615-256-256s114.615-256 256-256c141.385 0 256 114.615 256 256 0 141.385-114.615 256-256 256zM643.84 341.12c11.26-25.164 17.818-54.536 17.818-85.44s-6.558-60.276-18.358-86.801l-96.099 1.361c4.638 25.688 7.29 55.254 7.29 85.44 0 30.186-2.652 59.752-7.736 88.479zM384 256c-0.006 0.936-0.009 2.043-0.009 3.15 0 28.938 2.331 57.331 6.815 85.002l114.795-3.032c4.079-24.639 6.409-53.032 6.409-81.97 0-1.108-0.003-2.214-0.010-3.32 0.007-0.766 0.010-1.872 0.010-2.98 0-28.938-2.331-57.331-6.815-85.002l-114.795 3.032c-4.079 24.639-6.409 53.032-6.409 81.97 0 1.108 0.003 2.214 0.010 3.32zM618.88 384h-81.28c-11.121 41.020-32.662 76.060-61.625 103.299 78.384-37.794 124.984-72.611 153.982-119.469zM448 448c19.2 0 35.84-24.96 48-64h-96c12.16 39.040 28.8 64 48 64zM398.080 463.36c-24.403-30.724-40.833-68.802-45.587-110.426l-75.373 31.066c33.569 44.293 83.219 74.881 140.108 83.067zM252.16 341.12h96c-4.638-25.688-7.29-55.254-7.29-85.44 0-30.186 2.652-59.752 7.736-88.479l-96.446 3.039c-11.26 25.164-17.818 54.536-17.818 85.44s6.558 60.276 18.358 86.801zM277.12 128h81.28c11.121-41.020 32.662-76.060 61.625-103.299-78.384 37.794-124.984 72.611-153.982 119.469zM448 64c-19.2 0-35.84 24.96-48 64h96c-12.16-39.040-28.8-64-48-64zM497.92 48.64c24.403 30.724 40.833 68.802 45.587 110.426l75.373-31.066c-33.569-44.293-83.219-74.881-140.108-83.067zM597.76 896h-533.76v-1024h896v693.76zM896 540.16v-604.16h-768v896h448v-256h320z"  horiz-adv-x="1024" />

    
    <glyph glyph-name="pdfformat" unicode="&#58927;" d="M597.76 896h-533.76v-1024h896v693.76zM896-64h-768v896h448v-291.2h320zM213.76 280.32h-47.36v-133.12h49.28c58.24 0 85.76 21.76 85.76 69.76s-30.72 63.36-87.68 63.36zM486.4 273.92h-32.64v-268.8h32.64c77.44 0 119.040 45.44 119.040 135.68s-40.96 133.12-119.040 133.12zM64 448v-576h874.24v576zM239.36 95.36h-54.4v-136.96h-56.96v361.6h109.44c82.56 0 138.24-27.52 138.24-108.8s-55.68-115.84-136.32-115.84zM495.36-41.6h-98.56v361.6h93.44c5.013 0.56 10.826 0.879 16.713 0.879 88.012 0 159.36-71.348 159.36-159.36 0-7.305-0.492-14.496-1.443-21.54 1.076-5.861 1.638-13.575 1.638-21.42 0-88.719-71.921-160.64-160.64-160.64-4.374 0-8.707 0.175-12.992 0.518zM906.88 272h-158.72v-110.72h133.76v-48h-133.76v-155.52h-56.96v362.24h214.4z"  horiz-adv-x="1024" />

    
    <glyph glyph-name="word" unicode="&#58950;" d="M718.080 350.080c-12.16-60.16-21.12-117.76-32-177.28h-3.84c-12.8 58.88-23.68 117.12-36.48 177.28l-78.080 337.92h-106.24l-77.44-337.92c-12.8-58.88-23.68-117.76-35.84-177.28h-2.56c-9.6 58.88-18.56 117.12-29.44 177.28l-72.96 337.92h-115.2l147.84-624h131.84l64 307.2c14.080 58.88 23.68 117.12 34.56 181.76h5.76c12.16-64 21.76-121.6 34.56-180.48l71.68-308.48h136.96l140.8 624h-106.88zM960 896h-896c-35.346 0-64-28.654-64-64v-896c0-35.346 28.654-64 64-64h896c35.346 0 64 28.654 64 64v896c0 35.346-28.654 64-64 64zM960 0c0-35.346-28.654-64-64-64h-768c-35.346 0-64 28.654-64 64v768c0 35.346 28.654 64 64 64h768c35.346 0 64-28.654 64-64z"  horiz-adv-x="1024" />

    
    <glyph glyph-name="excel" unicode="&#58951;" d="M960 896h-896c-35.346 0-64-28.654-64-64v-896c0-35.346 28.654-64 64-64h896c35.346 0 64 28.654 64 64v896c0 35.346-28.654 64-64 64zM960 0c0-35.346-28.654-64-64-64h-768c-35.346 0-64 28.654-64 64v768c0 35.346 28.654 64 64 64h768c35.346 0 64-28.654 64-64zM816.64 768h-155.52l-74.88-154.88c-19.2-41.6-40.32-85.12-59.52-128h-5.12c-23.040 43.52-46.72 86.4-67.2 128l-85.12 154.88h-160.64l213.76-367.36-230.4-400.64h156.16l82.56 161.92c21.76 47.36 44.16 93.44 64 136.96h6.4c25.6-43.52 50.56-90.88 73.6-136.96l96-161.92h161.28l-229.12 384z"  horiz-adv-x="1024" />

    
    <glyph glyph-name="time" unicode="&#58954;" d="M839.71 665.392l21.719 21.719 43.439-43.439 54.298 53.659-127.76 127.76-54.937-54.298 43.439-43.439-21.719-21.719c-75.422 67.785-173.222 112.028-281.079 120.458 35.914 34.385 3.15 64.831-36.725 64.831-39.875 0-72.639-30.446-76.313-69.359-53.727-9.585-101.81-26.59-145.709-50.339l109.274-52.815c33.919 10.918 72.943 17.223 113.435 17.25 210.674-0.002 382.275-171.603 382.275-383.283 0-211.68-171.601-383.281-383.281-383.281-211.68 0-383.281 171.601-383.281 383.281-0 0.065-0 0.141-0 0.218 0 67.637 17.52 131.182 48.269 186.345l-80.209 52.35c-40.161-67.975-63.89-149.791-63.89-237.149 0-1.069 0.004-2.137 0.011-3.204-0.001-264.436 214.5-478.938 479.101-478.938 264.601 0 479.102 214.501 479.102 479.102-0.017 120.866-45.332 231.144-119.891 314.787zM480.065 640.479c-0.001 0-0.003 0-0.004 0-25.53 0-46.268-20.516-46.628-45.96l-0-182.093c-18.945-13.991-31.096-36.239-31.096-61.325s12.151-47.334 30.889-61.179l0.207-64.027c2.821-23.303 22.479-41.184 46.313-41.184s43.492 17.881 46.291 40.96l0.022 64.104c18.945 13.991 31.096 36.239 31.096 61.325s-12.151 47.334-30.889 61.179l-0.207 184.76c-1.708 24.169-21.601 43.165-45.99 43.439zM252.651 896l-109.235-251.049 274.685-5.11-50.465 77.934-51.104 79.85-63.88 98.376z"  horiz-adv-x="1024" />

    
    <glyph glyph-name="snapscreen" unicode="&#58960;" d="M665.6 503.040l-204.8-155.52-204.8 233.6v-389.12h512v155.52l-102.4 155.52zM1024 64h-128v704h-704v128h-64v-128h-128v-64h128v-704h704v-128h64v128h128zM192 64v640h640v-640z"  horiz-adv-x="1024" />

    
    <glyph glyph-name="wordimage" unicode="&#58962;" d="M988.16 448h-568.32c-19.794 0-35.84-16.046-35.84-35.84 0 0 0 0 0 0v-504.32c0-19.794 16.046-35.84 35.84-35.84h568.96c0 0 0 0 0 0 19.794 0 35.84 16.046 35.84 35.84 0 0 0 0 0 0v504.32c0 0.002 0 0.004 0 0.006 0 19.794-16.046 35.84-35.84 35.84-0.225 0-0.45-0.002-0.674-0.006zM664.32 283.52c-1.074-43.349-36.469-78.080-79.977-78.080-44.183 0-80 35.817-80 80 0 44.175 35.804 79.987 79.976 80 44.338-0.719 80.004-36.829 80.004-81.27 0-0.229-0.001-0.457-0.003-0.685zM929.28-64h-467.84l131.2 205.44 85.12-133.12 177.28 298.24 104.96-178.56v-163.2c-1.040-16.12-14.369-28.8-30.66-28.8-0.021 0-0.042 0-0.063 0zM960 896h-896c-35.346 0-64-28.654-64-64v-896c0-35.346 28.654-64 64-64h256v64h-192c-35.346 0-64 28.654-64 64v768c0 35.346 28.654 64 64 64h768c35.346 0 64-28.654 64-64v-256h64v320c0 35.346-28.654 64-64 64zM320 341.76l-78.72 362.24h-118.4l151.68-640h45.44v266.24zM858.88 512l43.52 192h-116.48l-40.32-192h113.28zM501.76 512c0 26.88 4.48 40.32 7.040 64h3.2c0-23.68 7.68-64 7.68-64h97.28l-44.8 192h-115.84l-42.88-192z"  horiz-adv-x="1024" />

    
    <glyph glyph-name="edittd" unicode="&#58970;" d="M576 128c0-106.039 85.961-192 192-192s192 85.961 192 192c0 106.039-85.961 192-192 192-106.039 0-192-85.961-192-192zM448 128c0.094 176.66 143.327 319.835 320 319.835 46.3 0 90.303-9.833 130.036-27.525l-2.036 347.69h-768v-768h346.88c-16.972 37.769-26.865 81.866-26.88 128.273zM0 896v-1024h576c-46.418 35.069-82.504 81.491-104.415 135.203l-407.585-71.203v896h896v-448c46.418-35.069 82.504-81.491 104.415-135.203l-40.415 647.203z"  horiz-adv-x="1024" />

    
    <glyph glyph-name="lineheight" unicode="&#58922;" d="M380.8 128h-380.8l190.72-254.72 190.080 254.72zM512 128h512v-64h-512v64zM512 320h512v-64h-512v64zM512 512h512v-64h-512v64zM512 704h512v-64h-512v64zM2.56 640h380.8l-190.080 254.72-190.72-254.72z"  horiz-adv-x="1024" />

    
    <glyph glyph-name="rowspacingbottom" unicode="&#58923;" d="M704 128H320l192-256zM672 256H32c-19.2 0-32 12.8-32 32S12.8 320 32 320h640c19.2 0 32-12.8 32-32s-12.8-32-32-32zM864 448H32C12.8 448 0 460.8 0 480S12.8 512 32 512h832c19.2 0 32-12.8 32-32s-12.8-32-32-32zM480 640h-448C12.8 640 0 652.8 0 672S12.8 704 32 704h448c19.2 0 32-12.8 32-32s-12.8-32-32-32zM992 832H32C12.8 832 0 844.8 0 864S12.8 896 32 896h960c19.2 0 32-12.8 32-32s-12.8-32-32-32z"  horiz-adv-x="1024" />

    
    <glyph glyph-name="rowspacingtop" unicode="&#58924;" d="M320 640h384L512 896zM352 512h640c19.2 0 32-12.8 32-32s-12.8-32-32-32h-640c-19.2 0-32 12.8-32 32s12.8 32 32 32zM160 320h832c19.2 0 32-12.8 32-32s-12.8-32-32-32h-832c-19.2 0-32 12.8-32 32s12.8 32 32 32zM544 128h448c19.2 0 32-12.8 32-32s-12.8-32-32-32h-448c-19.2 0-32 12.8-32 32s12.8 32 32 32zM32-64h960c19.2 0 32-12.8 32-32s-12.8-32-32-32H32c-19.2 0-32 12.8-32 32s12.8 32 32 32z"  horiz-adv-x="1024" />

    
    <glyph glyph-name="scrawl" unicode="&#58902;" d="M1018.284 618.88c-3.741 3.949-9.022 6.406-14.878 6.406-0.17 0-0.339-0.002-0.507-0.006-18.281-3.25-33.767-13.388-43.958-27.584l-387.377-385.216c-97.674-132.446-170.577-289.537-208.303-459.854l130.863 340.174 14.080 8.96c3.84 0 90.24 56.96 104.96 71.040l390.4 389.12c16.64 14.080 29.44 41.6 14.72 56.96zM774.444 497.92c-1.065-30.621-26.145-55.040-56.928-55.040-31.458 0-56.96 25.502-56.96 56.96 0 31.447 25.483 56.942 56.926 56.96 31.613-0.715 56.965-26.51 56.965-58.226 0-0.23-0.001-0.46-0.004-0.689zM173.484 292.48c-0.572-0.020-1.245-0.031-1.92-0.031-32.519 0-58.88 26.361-58.88 58.88 0 32.519 26.361 58.88 58.88 58.88 32.508 0 58.862-26.344 58.88-58.847 0.002-0.196 0.004-0.426 0.004-0.656 0-31.716-25.352-57.511-56.897-58.225zM256.684 497.92c1.065 30.621 26.145 55.040 56.928 55.040 31.458 0 56.96-25.502 56.96-56.96 0-31.447-25.483-56.942-56.926-56.96-31.613 0.715-56.965 26.51-56.965 58.226 0 0.23 0.001 0.46 0.004 0.689zM459.564 556.8c1.065 30.621 26.145 55.040 56.928 55.040 31.458 0 56.96-25.502 56.96-56.96 0-31.447-25.483-56.942-56.926-56.96-31.613 0.715-56.965 26.51-56.965 58.226 0 0.23 0.001 0.46 0.004 0.689zM902.444 357.76c-31.114-198.424-199.103-348.964-402.953-352.649-44.127 0.133-86.562 8.912-125.365 24.752-35.522 14.937-52.802 33.497-56.642 45.657s-3.84 13.44-5.12 20.48c-7.834 36.146-22.479 67.979-42.623 95.538 5.698-5.462-21.312 11.988-52.397 11.988-0.345 0-0.689-0.002-1.033-0.006-3.886 0.48-8.445 0.754-13.068 0.754-4.623 0-9.182-0.274-13.662-0.806-12.472-3.188-27.415-5.056-42.792-5.072-27.705 0.004-76.345 7.684-77.625 60.164-8.32 266.88 206.080 412.16 421.76 437.76 7.269 0.45 15.764 0.706 24.32 0.706 8.556 0 17.051-0.256 25.48-0.762-0.547 0.058 0.179 0.060 0.905 0.060 61.978 0 121.325-11.266 176.105-31.862 7.43-3.343 13.19-5.903 41.35-19.983 45.5-22.593 82.418-56.579 107.926-98.3l0.234 108.54c-39.591 39.065-89.533 67.734-145.34 81.521 39.74-11.761 32.060-7.921 18.62-2.161-57.675 21.514-124.314 33.964-193.861 33.964-2.496 0-4.989-0.016-7.477-0.048-8.039 0.525-17.876 0.822-27.782 0.822-9.906 0-19.744-0.297-29.503-0.882-141.37-14.839-266.964-78.425-360.631-173.541-66.027-62.45-121.268-181.419-121.268-313.291 0-8.831 0.248-17.603 0.737-26.312-0.056 0.957-0.057 0.66-0.057 0.363 0-38.985 18.155-73.73 46.471-96.241 26.281-19.448 59.014-31.013 94.449-31.013 1.984 0 3.961 0.036 5.927 0.108 20.847 0.167 41.263 2.875 60.785 7.826l7.41-0.794c13.44 0 19.2-11.52 30.72-57.6 0-7.68 3.84-15.36 5.76-23.040 18.972-47.312 59.266-82.528 108.663-94.1 33.53-14.445 83.337-24.315 135.45-24.315 1.254 0 2.507 0.006 3.758 0.017 0.225-0.003 0.719-0.004 1.212-0.004 63.695 0 124.367 12.941 179.531 36.338 81.727 34.251 151.681 90.814 202.313 162.068 5.358-6.858 54.273 74.77 77.563 166.616-8.168-44.029 10.698 24.185 13.446 96.526l-3.217-20.585z"  horiz-adv-x="1024" />

    
    <glyph glyph-name="redo" unicode="&#58889;" d="M900.608 421.888c-51.2 51.2-260.608 261.632-291.84 292.352-11.806 10.097-27.254 16.241-44.137 16.241-18.488 0-35.255-7.368-47.525-19.327-11.992-12.987-19.355-30.431-19.355-49.596 0-9.601 1.848-18.77 5.208-27.172 12.114-17.938 187.73-199.186 187.73-199.186h-520.704c-1.707 0.167-3.691 0.262-5.696 0.262-34.215 0-61.952-27.737-61.952-61.952 0-0.993 0.023-1.98 0.070-2.961 1.872-36.617 31.37-65.906 68.041-67.444l517.682-0.001-173.056-172.032c-11.419-12.149-18.435-28.551-18.435-46.592s7.016-34.443 18.468-46.628c12.029-13.522 29.523-22.020 49.001-22.020 15.841 0 30.37 5.621 41.7 14.976 24.977 22.951 255.889 252.839 297.873 296.359s-3.072 94.72-3.072 94.72z"  horiz-adv-x="1024" />

    
    <glyph glyph-name="undo" unicode="&#58880;" d="M128.512 419.84c51.2 51.2 260.608 261.632 291.84 292.352 11.806 10.097 27.254 16.241 44.137 16.241 18.488 0 35.255-7.368 47.525-19.327 11.777-12.935 18.997-30.227 18.997-49.205 0-9.749-1.905-19.053-5.364-27.559-13.648-17.942-187.216-197.142-187.216-197.142h520.192c1.125 0.073 2.44 0.114 3.764 0.114 34.215 0 61.952-27.737 61.952-61.952 0-1.662-0.065-3.309-0.194-4.938-1.863-36.541-31.361-65.829-68.033-67.368l-517.682-0.001 173.568-173.056c11.419-12.149 18.435-28.551 18.435-46.592s-7.016-34.443-18.468-46.628c-12.029-13.522-29.523-22.020-49.001-22.020-15.841 0-30.37 5.621-41.7 14.976-24.977 22.951-255.889 252.839-297.873 296.359s5.12 95.744 5.12 95.744z"  horiz-adv-x="1024" />

    
    <glyph glyph-name="inserttitle" unicode="&#58971;" d="M512 379.904v153.6h-51.2v-102.4h-102.4v-51.2h-153.6v51.2h-102.4v102.4h-51.2v-614.4h921.6v460.8zM338.944-29.696h-240.64v167.936h238.592zM338.944 189.44h-240.64v139.264h238.592zM636.416-29.696h-248.32v167.936h246.272zM636.416 189.44h-248.32v139.264h246.272zM919.552-29.696h-233.984v167.936h231.936zM919.552 189.44h-233.984v139.264h231.936zM512 430.592v-51.2h460.8v465.408h-460.8v-307.2zM563.2 635.392h153.6v153.6h51.2v-153.6h153.6v-51.2h-153.6v-153.6h-51.2v153.6h-153.6zM99.328 787.968h102.4v51.2h-153.6v-153.6h51.2v102.4zM512.512 791.040v51.2h-153.6v-51.2h102.4v-102.4h51.2v102.4z"  horiz-adv-x="1024" />

    
    <glyph glyph-name="insertparagraphtrue" unicode="&#58976;" d="M997.12 448h-997.12v-576h1024v576zM60.16-64v256h259.84v-256zM542.080-64h-158.080v256h256v-256zM963.84-64h-259.84v256h259.84zM448 896h-448v-64h192v-384h64v384h192v64z"  horiz-adv-x="1024" />

    
    <glyph glyph-name="aligntable" unicode="&#58978;" d="M992 832H32C12.8 832 0 844.8 0 864S12.8 896 32 896h960c19.2 0 32-12.8 32-32s-12.8-32-32-32z m0-192H32C12.8 640 0 652.8 0 672S12.8 704 32 704h960c19.2 0 32-12.8 32-32s-12.8-32-32-32z m0-192H32C12.8 448 0 460.8 0 480S12.8 512 32 512h960c19.2 0 32-12.8 32-32s-12.8-32-32-32z m0-384H32c-19.2 0-32 12.8-32 32s12.8 32 32 32h960c19.2 0 32-12.8 32-32s-12.8-32-32-32z m0-192H32c-19.2 0-32 12.8-32 32s12.8 32 32 32h960c19.2 0 32-12.8 32-32s-12.8-32-32-32zM992 448H32C12.8 448 0 460.8 0 480S12.8 512 32 512h960c19.2 0 32-12.8 32-32s-12.8-32-32-32z m0-192H32c-19.2 0-32 12.8-32 32S12.8 320 32 320h960c19.2 0 32-12.8 32-32s-12.8-32-32-32z"  horiz-adv-x="1024" />

    
    <glyph glyph-name="table" unicode="&#58980;" d="M0 896v-1024h1024v1024zM320-64h-256v256h256zM320 256h-256v256h256zM640-64h-256v256h256zM640 256h-256v256h256zM960-64h-256v256h256zM960 256h-256v256h256zM960 576h-896v256h896z"  horiz-adv-x="1024" />

    
    <glyph glyph-name="tablealignment-left" unicode="&#58979;" d="M51.2 793.6l921.6 0 0-51.2-921.6 0 0 51.2ZM51.2 640l614.4 0 0-51.2-614.4 0 0 51.2ZM51.2 486.4l921.6 0 0-51.2-921.6 0 0 51.2ZM51.2 332.79999999999995l614.4 0 0-51.2-614.4 0 0 51.2ZM51.2 179.20000000000005l921.6 0 0-51.2-921.6 0 0 51.2ZM51.2 25.600000000000023l614.4 0 0-51.2-614.4 0 0 51.2Z"  horiz-adv-x="1024" />

    
    <glyph glyph-name="tablealignment-center" unicode="&#58981;" d="M51.2 793.6l921.6 0 0-51.2-921.6 0 0 51.2ZM51.2 486.4l921.6 0 0-51.2-921.6 0 0 51.2ZM51.2 179.20000000000005l921.6 0 0-51.2-921.6 0 0 51.2ZM51.2 640l921.6 0 0-51.2-921.6 0 0 51.2ZM51.2 332.79999999999995l921.6 0 0-51.2-921.6 0 0 51.2ZM51.2 25.600000000000023l921.6 0 0-51.2-921.6 0 0 51.2ZM51.2 793.6l921.6 0 0-51.2-921.6 0 0 51.2ZM51.2 486.4l921.6 0 0-51.2-921.6 0 0 51.2ZM51.2 179.20000000000005l921.6 0 0-51.2-921.6 0 0 51.2Z"  horiz-adv-x="1024" />

    
    <glyph glyph-name="tablealignment-right" unicode="&#58982;" d="M51.2 793.6l921.6 0 0-51.2-921.6 0 0 51.2ZM358.4 640l614.4 0 0-51.2-614.4 0 0 51.2ZM51.2 486.4l921.6 0 0-51.2-921.6 0 0 51.2ZM358.4 332.79999999999995l614.4 0 0-51.2-614.4 0 0 51.2ZM51.2 179.20000000000005l921.6 0 0-51.2-921.6 0 0 51.2ZM358.4 25.600000000000023l614.4 0 0-51.2-614.4 0 0 51.2Z"  horiz-adv-x="1024" />

    
    <glyph glyph-name="paste" unicode="&#58983;" d="M832 576v160c0 17.673-14.327 32-32 32h-224v64c0 35.346-28.654 64-64 64h-128c-35.346 0-64-28.654-64-64v-64h-224c-17.673 0-32-14.327-32-32v-640c0-17.673 14.327-32 32-32h288v-192h448l192 192v512zM384 832h128v-64h-128zM192 704h512v-64h-512zM832-37.76v101.76h101.76zM960 128h-192v-192h-320v576h512z"  horiz-adv-x="1024" />

    
    <glyph glyph-name="map" unicode="&#58984;" d="M375.424 564.176c-2.432-6.96-7.856-24.704-3.152-40.208 9.232-34.672 39.424-36.24 39.424-36.24h43.264V593.632h-46.4c-20.864-6.24-30.944-22.432-33.136-29.456z m129.072-119.072H397.008c-46.448 9.28-64.896 40.992-67.28 46.368-2.288 5.456-15.504 30.944-8.464 74.256 20.032 64.976 77.28 69.616 77.28 69.616h57.248v70.368l48.704-0.8v-259.808z m200.272 0.768H581.04c-47.92 12.368-50.176 46.496-50.176 46.496V629.184L581.04 630v-123.024c3.008-13.024 19.376-15.44 19.376-15.44h50.912V629.232h53.456v-183.36h-0.016zM512-125.45c-11.203 0-21.563 6-27.172 15.688L208.375 368.274c-30.803 53.1-47.11 113.662-47.11 175.084 0 193.047 157.35 350.094 350.75 350.094 193.391 0 350.72-157.047 350.72-350.094 0-61.421-16.298-121.975-47.126-175.115l-276.437-478.007c-5.61-9.687-15.953-15.687-27.172-15.687z m0.016 956.138c-158.788 0-287.985-128.907-287.985-287.329 0-50.375 13.375-100.037 38.663-143.615l249.303-431.1 249.297 431.062c25.297 43.616 38.656 93.281 38.656 143.656 0 158.42-129.172 287.325-287.934 287.325z"  horiz-adv-x="1024" />

    
    <glyph glyph-name="directionalityrtl" unicode="&#58881;" d="M960 62.080l-384 320 384 320.64v-640.64zM64 704v64h448v-64h-192v-640h192v-64h-448v64h192v640h-192z"  horiz-adv-x="1024" />

    
    <glyph glyph-name="imagecenter" unicode="&#58882;" d="M0 896h1024v-64h-1024zM128 704h768v-448h-768v448zM0 128h1024v-64h-1024zM0-64h1024v-64h-1024z"  horiz-adv-x="1024" />

    
    <glyph glyph-name="imagenone" unicode="&#58887;" d="M52.736 788.992l921.6 0 0-51.2-921.6 0 0 51.2ZM52.736 635.392l409.6 0 0-512-409.6 0 0 512ZM564.736 174.592l409.6 0 0-51.2-409.6 0 0 51.2ZM54.784 20.992l921.6 0 0-51.2-921.6 0 0 51.2ZM564.736 328.192l409.6 0 0-51.2-409.6 0 0 51.2Z"  horiz-adv-x="1024" />

    
    <glyph glyph-name="fontborder" unicode="&#58888;" d="M345.6 64l44.8 153.6h224l44.8-153.6H768L576 704H448L256 64h89.6z m153.6 531.2l83.2-288H416l83.2 288zM896 832H64v-896h896V832h-64z m0-832H128V768h768v-768z"  horiz-adv-x="1024" />

    
    <glyph glyph-name="edittable" unicode="&#58890;" d="M993.92 47.36l-144 144.64c8.659 23.774 13.667 51.219 13.667 79.833 0 132.548-107.452 240-240 240-33.832 0-66.029-7-95.221-19.632l-16.365-6.441v-2.56c-2.225-2.205-3.603-5.261-3.603-8.64s1.378-6.435 3.602-8.639l134.401-134.401-81.92-80.64-131.84 133.12c-2.579 2.775-6.249 4.505-10.323 4.505-6.183 0-11.434-3.985-13.327-9.526l-4.509-10.339c-12.032-27.638-19.033-59.835-19.033-93.667 0-132.548 107.452-240 240-240 28.614 0 56.059 5.008 81.505 14.194l142.328-144.527c18.54-18.584 44.175-30.081 72.496-30.081 0.163 0 0.326 0 0.489 0.001 56.695 0.247 102.579 46.285 102.579 103.039 0 28.187-11.318 53.73-29.656 72.333zM960-64c-10.303-10.282-24.526-16.64-40.234-16.64-0.030 0-0.061 0-0.091 0-0.021-0-0.051-0-0.082-0-15.708 0-29.93 6.358-40.235 16.641l-165.119 165.119-14.080-6.4c-23.254-10.787-50.473-17.079-79.162-17.079-106.039 0-192 85.961-192 192 0 16.288 2.028 32.103 5.846 47.205l120.676-124.846c2.359-1.847 5.369-2.963 8.64-2.963s6.281 1.115 8.671 2.986l127.969 127.977c2.168 2.464 3.491 5.718 3.491 9.28s-1.323 6.816-3.504 9.296l-120.306 122.864c14.813 4.102 31.821 6.459 49.381 6.459 106.039 0 192-85.961 192-192 0-30.528-7.125-59.393-19.803-85.021l-5.898-12.958 163.84-162.56c9.956-10.245 16.095-24.246 16.095-39.68s-6.139-29.435-16.108-39.694zM832 896h-832v-832h320v512h512zM256 128h-192v192h192zM256 384h-192v192h192zM256 640h-192v192h192zM512 640h-192v192h192zM576 640v192h192v-192z"  horiz-adv-x="1024" />

    
    <glyph glyph-name="imageleft" unicode="&#58891;" d="M50.688 794.624l921.6 0 0-51.2-921.6 0 0 51.2ZM50.688 641.024l409.6 0 0-512-409.6 0 0 512ZM562.688 180.224l409.6 0 0-51.2-409.6 0 0 51.2ZM52.736 26.624l921.6 0 0-51.2-921.6 0 0 51.2ZM562.688 333.824l409.6 0 0-51.2-409.6 0 0 51.2ZM562.688 487.424l409.6 0 0-51.2-409.6 0 0 51.2ZM562.688 641.024l409.6 0 0-51.2-409.6 0 0 51.2Z"  horiz-adv-x="1024" />

    
    <glyph glyph-name="imageright" unicode="&#58901;" d="M0 896h1024v-64h-1024zM512 704h512v-640h-512v640zM0 128h448v-64h-448zM0-64h1024v-64h-1024zM0 320h448v-64h-448zM0 512h448v-64h-448zM0 704h448v-64h-448z"  horiz-adv-x="1024" />

    
    <glyph glyph-name="insertcol" unicode="&#58917;" d="M256 640l-256-256 256-256v512zM1024-128v1024h-640v-1024zM768 832h192v-256h-192zM768 512h192v-256h-192zM768 192h192v-256h-192zM448 832h192v-256h-192zM448 512h192v-256h-192zM448 192h192v-256h-192z"  horiz-adv-x="1024" />

    
    <glyph glyph-name="insertcolnext" unicode="&#58918;" d="M768 128l256 256-256 256v-512zM0 896v-1024h640v1024zM256-64h-192v256h192zM256 256h-192v256h192zM256 576h-192v256h192zM576-64h-192v256h192zM576 256h-192v256h192zM576 576h-192v256h192z"  horiz-adv-x="1024" />

    
    <glyph glyph-name="insertorderedlist" unicode="&#58933;" d="M319.956 832.009h703.902v-127.982h-703.902v127.982zM319.956 448.062h703.902v-127.982h-703.902v127.982zM319.956 64.115h703.902v-127.982h-703.902v127.982zM191.973 896v-255.964h-127.982v255.964zM0 256.089v30.716c0 103.666 159.978 141.42 159.978 186.854 0 17.918-10.878 28.156-33.275 28.156-31.301-3-58.565-18.191-77.352-40.702l-43.591 57.98c30.879 35.002 75.835 56.965 125.921 56.965 0.725 0 1.448-0.005 2.171-0.014 78.599 0.001 122.113-42.233 122.113-97.265 0-78.069-95.347-98.546-142.7-147.18h142.7v-75.51zM127.982-127.858c-2.045-0.090-4.443-0.142-6.854-0.142-47.758 0-90.798 20.2-121.042 52.521l48.547 49.366c18.682-18.147 44.020-29.531 72.013-30.151 25.894 0.076 39.332 14.154 39.332 33.351 0 17.278-12.158 26.236-36.475 26.236h-24.317v52.473h24.957c23.037 0 36.475 6.399 36.475 26.876 0 19.837-12.798 31.356-38.395 31.356-26.139-0.731-49.26-13.049-64.502-31.98l-47.483 49.257c29.161 33.898 72.108 55.232 120.038 55.232 2.794 0 5.572-0.073 8.33-0.216 72.564 5.775 117.357-35.819 117.357-82.533v-5.119c0-0.034 0-0.075 0-0.115 0-35.341-28.65-63.991-63.991-63.991-1.351 0-2.692 0.042-4.022 0.124 50.735-7.048 70.572-33.284 70.572-67.2v-3.839c-2.56-53.113-54.392-91.507-130.542-91.507z"  horiz-adv-x="1024" />

    
    <glyph glyph-name="insertparagraphbeforetable" unicode="&#58934;" d="M256 512v-640h768v640zM512-64h-192v512h192zM960-64h-384v128h384zM960 128h-384v128h384zM960 320h-384v128h384zM384 320h64v-256h-64zM0 896v-64h128v-384h64v384h128v64h-320z"  horiz-adv-x="1024" />

    
    <glyph glyph-name="insertrow" unicode="&#58935;" d="M768 640l-256 256-256-256h512zM0-128h1024v640h-1024zM960 128v-192h-256v192zM640 128v-192h-256v192zM320 128v-192h-256v192zM960 448v-192h-256v192zM640 448v-192h-256v192zM320 448v-192h-256v192z"  horiz-adv-x="1024" />

    
    <glyph glyph-name="insertrownext" unicode="&#58937;" d="M256 128l256-256 256 256h-512zM1024 896h-1024v-640h1024zM64 640v192h256v-192zM384 640v192h256v-192zM704 640v192h256v-192zM64 320v192h256v-192zM384 320v192h256v-192zM704 320v192h256v-192z"  horiz-adv-x="1024" />

    
    <glyph glyph-name="insertunorderedlist" unicode="&#58945;" d="M960 704H256c-38.4 0-64 25.6-64 64s25.6 64 64 64h704c38.4 0 64-25.6 64-64s-25.6-64-64-64zM64 704c-38.4 0-64 25.6-64 64s25.6 64 64 64 64-25.6 64-64-25.6-64-64-64zM960 320H256c-38.4 0-64 25.6-64 64s25.6 64 64 64h704c38.4 0 64-25.6 64-64s-25.6-64-64-64zM64 320c-38.4 0-64 25.6-64 64s25.6 64 64 64 64-25.6 64-64-25.6-64-64-64zM960-64H256c-38.4 0-64 25.6-64 64s25.6 64 64 64h704c38.4 0 64-25.6 64-64s-25.6-64-64-64zM64-64c-38.4 0-64 25.6-64 64s25.6 64 64 64 64-25.6 64-64-25.6-64-64-64z"  horiz-adv-x="1024" />

    
    <glyph glyph-name="mergeright" unicode="&#58946;" d="M0 896v-1024h1024v1024zM384 832h256v-256h-256zM384 448h320v64l192-128-192-128v64h-320zM320-64h-256v256h256zM320 256h-256v256h256zM320 576h-256v256h256zM640-64h-256v256h256zM960-64h-256v256h256zM960 576h-256v256h256z"  horiz-adv-x="1024" />

    
    <glyph glyph-name="mergedown" unicode="&#58947;" d="M0 896v-1024h1024v1024zM320-64h-256v256h256zM320 256h-256v256h256zM320 576h-256v256h256zM512 0l-128 192h64v320h128v-320h64zM640 576h-256v256h256zM960-64h-256v256h256zM960 256h-256v256h256zM960 576h-256v256h256z"  horiz-adv-x="1024" />

    
    <glyph glyph-name="inserttable" unicode="&#58948;" d="M0 896v-1024h1024v1024zM320-64h-256v256h256zM320 256h-256v256h256zM640-64h-256v256h256zM640 256h-256v256h256zM960-64h-256v256h256zM960 256h-256v256h256zM960 576h-896v256h896z"  horiz-adv-x="1024" />

    
    <glyph glyph-name="pagebreak" unicode="&#58952;" d="M384-64h512v-64h-512zM0 576v-384l256 192-256 192zM320 768h576v-64h-576zM384 64h256v-64h-256zM192 192v-320h64v256h704v-256h64v320h-832zM1022.72 896h-62.72v-256h-704v256h-64v-320h832v320h-1.28z"  horiz-adv-x="1024" />

    
    <glyph glyph-name="source" unicode="&#58953;" d="M170.88 384h-113.92v128h-56.96v-320h56.96v128h113.92v-128h56.96v320h-56.96v-128zM284.16 448h56.96v-256h56.96v256h56.96v64h-170.88v-64zM738.56 510.72l-84.48-250.24-84.48 251.52-2.56-1.28h-55.040v-316.8h56.96v140.16l47.36-140.8h72.96l2.56-1.28 48 140.8v-139.52h56.32v316.8h-55.040l-2.56 0.64zM910.080 256v256h-56.96v-320h170.88v64h-113.92z"  horiz-adv-x="1024" />

    
    <glyph glyph-name="splittorows" unicode="&#58955;" d="M0 896h1024v-64H0zM960 896v-320h-128V896h-64v-320H256V896H192v-320H64V896H0v-1024h1024V896z m-192-384v-256H256V512zM64 512h128v-256H64z m0-576v256h128v-256z m192 0v256h512v-256z m704 0h-128v256h128z m0 320h-128V512h128z"  horiz-adv-x="1024" />

    
    <glyph glyph-name="splittocols" unicode="&#58956;" d="M1024 896h-1024v-1024h1024zM960 512v-256h-128v256zM960 832v-256h-128v256zM64 576v256h128v-256zM64 256v256h128v-256zM64-64v256h128v-256zM256-64v896h128v-896zM448-64v896h128v-896zM640-64v896h128v-896zM832-64v256h128v-256z"  horiz-adv-x="1024" />

    
    <glyph glyph-name="splittocells" unicode="&#58957;" d="M0 896v-1024h1024v1024zM320-64h-256v576h256zM640-64h-256v256h256zM640 256h-256v256h256zM960-64h-256v256h256zM960 256h-256v256h256zM960 576h-576v256h576z"  horiz-adv-x="1024" />

    
    <glyph glyph-name="arrow" unicode="&#58959;" d="M513.024 230.4l204.8 204.8h-409.6l204.8-204.8z"  horiz-adv-x="1024" />

    
    <glyph glyph-name="aligntd" unicode="&#58961;" d="M256.061 128.061h511.877v-63.985h-511.877v63.985zM256.061 320.015h511.877v-63.985h-511.877v63.985zM256.061 511.969h511.877v-63.985h-511.877v63.985zM256.061 703.923h511.877v-63.985h-511.877v63.985zM863.916-127.878h-703.832c-1.402-0.077-3.043-0.121-4.695-0.121-48.324 0-87.898 37.462-91.266 84.928l-0.017 853.847c3.384 47.758 42.959 85.22 91.282 85.22 1.651 0 3.292-0.044 4.922-0.13l703.604 0.010c1.402 0.077 3.043 0.121 4.695 0.121 48.324 0 87.898-37.462 91.266-84.928l0.017-853.847c-3.384-47.758-42.959-85.22-91.282-85.22-1.651 0-3.292 0.044-4.922 0.13zM160.084 831.892c-0.591 0.041-1.281 0.065-1.977 0.065-15.956 0-29.010-12.427-30.011-28.131l-0.004-839.567c1.005-15.791 14.059-28.218 30.016-28.218 0.696 0 1.386 0.024 2.069 0.070l703.739-0.005c0.591-0.041 1.281-0.065 1.977-0.065 15.956 0 29.010 12.427 30.011 28.131l0.004 839.567c-1.005 15.791-14.059 28.218-30.016 28.218-0.696 0-1.386-0.024-2.069-0.070z"  horiz-adv-x="1024" />

    
    <glyph glyph-name="autotypeset" unicode="&#58963;" d="M192 704h384v-320h-384v320zM640 704h192v-64h-192v64zM640 512h192v-64h-192v64zM192 320h640v-64h-640v64zM192 128h640v-64h-640v64zM960 896h-896c-35.346 0-64-28.654-64-64v-896c0-35.346 28.654-64 64-64h896c35.346 0 64 28.654 64 64v896c0 35.346-28.654 64-64 64zM960 0c0-35.346-28.654-64-64-64h-768c-35.346 0-64 28.654-64 64v768c0 35.346 28.654 64 64 64h768c35.346 0 64-28.654 64-64z"  horiz-adv-x="1024" />

    
    <glyph glyph-name="charts" unicode="&#58968;" d="M0 832v-896h1024v896zM960 0h-896v768h896zM704 640h128v-512h-128zM448 320h128v-192h-128zM192 512h128v-384h-128z"  horiz-adv-x="1024" />

    
    <glyph glyph-name="closeerror" unicode="&#58972;" d="M512 896c-282.77 0-512-229.23-512-512s229.23-512 512-512c282.77 0 512 229.23 512 512 0 282.77-229.23 512-512 512zM796.16 225.92l-128-128-156.16 158.080-158.080-156.16-128 128 158.080 156.16-156.16 158.080 128 128 156.16-158.080 158.080 158.080 128-128-158.080-158.080z"  horiz-adv-x="1024" />

    
    <glyph glyph-name="copy" unicode="&#58975;" d="M256.060 511.97h511.879v-63.985h-511.879v63.985zM256.060 320.015h511.879v-63.985h-511.879v63.985zM256.060 128.060h511.879v-63.985h-511.879v63.985zM256.060 703.924h255.94v-63.985h-255.94v63.985zM895.91 639.939h-191.955v199.633c-3.964 31.88-30.89 56.308-63.523 56.308-0.162 0-0.325-0.001-0.487-0.002l-502.257 0c-1.216 0.076-2.637 0.119-4.068 0.119-36.533 0-66.506-28.090-69.498-63.85l-0.017-896.043c3.010-36.014 32.982-64.104 69.515-64.104 1.431 0 2.852 0.043 4.261 0.128l748.43-0.009c1.216-0.076 2.637-0.119 4.068-0.119 36.533 0 66.506 28.090 69.498 63.85l0.017 647.142c-3.664 32.179-30.738 56.948-63.597 56.948-0.136 0-0.273-0-0.409-0.001zM895.91-55.577c-0-4.594-3.724-8.318-8.318-8.318h-749.903c-5.301 0-9.598 4.297-9.598 9.598 0 0 0 0 0 0v877.873c0 4.594 3.724 8.318 8.318 8.318h491.404c0.196 0.012 0.426 0.019 0.657 0.019 6.142 0 11.162-4.808 11.499-10.866l0.001-191.985c3.573-30.12 28.96-53.257 59.75-53.257 1.49 0 2.968 0.054 4.431 0.161l180.242-0.011c0.196 0.012 0.426 0.019 0.657 0.019 6.142 0 11.162-4.808 11.499-10.866l0.001-620.684z"  horiz-adv-x="1024" />

    
    <glyph glyph-name="date" unicode="&#58977;" d="M896 768v-64h64v-704h-896v704h64v64h-128v-832h1024v832h-128zM832 832h-192v-255.36l192-0.64v256zM576 192h256v-64h-256zM576 384h256v-64h-256zM448 768h128v-64h-128zM192 192h256v-64h-256zM192 384h256v-64h-256zM384 832h-192v-256l192 0.64v255.36z"  horiz-adv-x="1024" />

    
    <glyph glyph-name="deletetable" unicode="&#58985;" d="M576 896v-448h448v448zM1003.52 558.72l-90.24-90.24-113.28 113.28-113.28-113.28-90.24 90.24 113.28 113.28-113.28 113.28 90.24 90.24 113.28-113.28 113.28 113.28 90.88-90.88-113.92-112.64zM960 256h-256v192h-64v-192h-256v256h192v64h-512v256h512v64h-576v-1024h1024v576h-64zM320-64h-256v256h256zM320 256h-256v256h256zM640-64h-256v256h256zM960-64h-256v256h256z"  horiz-adv-x="1024" />

    
    <glyph glyph-name="directionalityltr" unicode="&#58986;" d="M64 64l384 320-384 320v-640zM960 704v64h-448v-64h192v-640h-192v-64h448v64h-192v640h192z"  horiz-adv-x="1024" />

    
    <glyph glyph-name="arrowright" unicode="&#58987;" d="M615.424 384l-204.8 204.8v-409.6l204.8 204.8z"  horiz-adv-x="1024" />

    
    <glyph glyph-name="tableleft" unicode="&#58988;" d="M960 832v-896H64V832h896m64 64H0v-1024h1024V896zM192 704h640v-64H192zM192 512h640v-64H192zM192 320h256v-64H192z"  horiz-adv-x="1024" />

    
    <glyph glyph-name="tableright" unicode="&#58989;" d="M960 832v-896H64V832h896m64 64H0v-1024h1024V896zM188.8 704.64h640v-64h-640zM188.8 512.64h640v-64h-640zM576 320.64h256v-64H576z"  horiz-adv-x="1024" />

    
    <glyph glyph-name="tablecenter" unicode="&#58990;" d="M960 832v-896H64V832h896m64 64H0v-1024h1024V896zM188.8 703.36h640v-64h-640zM188.8 511.36h640v-64h-640zM383.36 319.36h256v-64h-256z"  horiz-adv-x="1024" />

    
    <glyph glyph-name="videoleft" unicode="&#58991;" d="M96 800l832 0 0-32-832 0 0 32ZM96 704l832 0 0-32-832 0 0 32ZM96 96l832 0 0-32-832 0 0 32ZM96 0l399.36 0 0-32-399.36 0 0 32ZM704 192l224 0 0-32-224 0 0 32ZM704 288l224 0 0-32-224 0 0 32ZM704 384l224 0 0-32-224 0 0 32ZM704 480l224 0 0-32-224 0 0 32ZM704 576l224 0 0-32-224 0 0 32ZM256 416m-64 0a64 64 0 1 1 128 0 64 64 0 1 1-128 0ZM640 576H128a32 32 0 0 1-32-32v-352a32 32 0 0 1 32-32h512a32 32 0 0 1 32 32V544a32 32 0 0 1-32 32z m0-251.52L544 448l-162.24-208.64L304 332.8 186.56 192H160a32 32 0 0 0-32 32v288a32 32 0 0 0 32 32h448a32 32 0 0 0 32-32zM992 864v-960H32V864h960m0 32H32a32 32 0 0 1-32-32v-960a32 32 0 0 1 32-32h960a32 32 0 0 1 32 32V864a32 32 0 0 1-32 32z"  horiz-adv-x="1024" />

    
    <glyph glyph-name="videocenter" unicode="&#58992;" d="M96 800l832 0 0-32-832 0 0 32ZM96 704l832 0 0-32-832 0 0 32ZM96 96l832 0 0-32-832 0 0 32ZM96 0l399.36 0 0-32-399.36 0 0 32ZM96 192l96 0 0-32-96 0 0 32ZM96 288l96 0 0-32-96 0 0 32ZM96 384l96 0 0-32-96 0 0 32ZM96 480l96 0 0-32-96 0 0 32ZM96 576l96 0 0-32-96 0 0 32ZM832 288l96 0 0-32-96 0 0 32ZM832 192l96 0 0-32-96 0 0 32ZM832 384l96 0 0-32-96 0 0 32ZM832 480l96 0 0-32-96 0 0 32ZM832 576l96 0 0-32-96 0 0 32ZM384 416m-64 0a64 64 0 1 1 128 0 64 64 0 1 1-128 0ZM768 576H256a32 32 0 0 1-32-32v-352a32 32 0 0 1 32-32h512a32 32 0 0 1 32 32V544a32 32 0 0 1-32 32z m0-251.52L672 448l-162.24-208.64-77.76 93.44L314.56 192H288a32 32 0 0 0-32 32v288a32 32 0 0 0 32 32h448a32 32 0 0 0 32-32zM992 864v-960H32V864h960m0 32H32a32 32 0 0 1-32-32v-960a32 32 0 0 1 32-32h960a32 32 0 0 1 32 32V864a32 32 0 0 1-32 32z"  horiz-adv-x="1024" />

    
    <glyph glyph-name="videonone" unicode="&#58993;" d="M96 800l832 0 0-32-832 0 0 32ZM96 704l832 0 0-32-832 0 0 32ZM96 96l832 0 0-32-832 0 0 32ZM96 0l399.36 0 0-32-399.36 0 0 32ZM704 192l224 0 0-32-224 0 0 32ZM704 288l224 0 0-32-224 0 0 32ZM256 416m-64 0a64 64 0 1 1 128 0 64 64 0 1 1-128 0ZM640 576H128a32 32 0 0 1-32-32v-352a32 32 0 0 1 32-32h512a32 32 0 0 1 32 32V544a32 32 0 0 1-32 32z m0-251.52L544 448l-162.24-208.64L304 332.8 186.56 192H160a32 32 0 0 0-32 32v288a32 32 0 0 0 32 32h448a32 32 0 0 0 32-32zM992 864v-960H32V864h960m0 32H32a32 32 0 0 1-32-32v-960a32 32 0 0 1 32-32h960a32 32 0 0 1 32 32V864a32 32 0 0 1-32 32z"  horiz-adv-x="1024" />

    
    <glyph glyph-name="videoright" unicode="&#58994;" d="M96 800l832 0 0-32-832 0 0 32ZM96 704l832 0 0-32-832 0 0 32ZM96 96l832 0 0-32-832 0 0 32ZM96 0l399.36 0 0-32-399.36 0 0 32ZM96 192l224 0 0-32-224 0 0 32ZM96 288l224 0 0-32-224 0 0 32ZM96 384l224 0 0-32-224 0 0 32ZM96 480l224 0 0-32-224 0 0 32ZM96 576l224 0 0-32-224 0 0 32ZM512 416m-64 0a64 64 0 1 1 128 0 64 64 0 1 1-128 0ZM896 576H384a32 32 0 0 1-32-32v-352a32 32 0 0 1 32-32h512a32 32 0 0 1 32 32V544a32 32 0 0 1-32 32z m0-251.52L800 448l-162.24-208.64-77.76 93.44-117.44-140.8H416a32 32 0 0 0-32 32v288a32 32 0 0 0 32 32h448a32 32 0 0 0 32-32zM992 864v-960H32V864h960m0 32H32a32 32 0 0 1-32-32v-960a32 32 0 0 1 32-32h960a32 32 0 0 1 32 32V864a32 32 0 0 1-32 32z"  horiz-adv-x="1024" />

    
    <glyph glyph-name="template" unicode="&#58958;" d="M0 832v-896h1024v896zM960 0h-896v768h896zM192 640h320v-192h-320zM640 640h192v-512h-192zM192 320h320v-192h-320z"  horiz-adv-x="1024" />

    
    <glyph glyph-name="addfile" unicode="&#58995;" d="M1024 416H544V896h-64v-480H0v-64h480v-480h64V352h480v64z"  horiz-adv-x="1024" />

    
    <glyph glyph-name="selected" unicode="&#58996;" d="M914.24 278.72a32 32 0 0 1-45.12 0l-221.44-221.12-112.96 112.96a32 32 0 1 1-45.12-45.12l135.68-135.68a32 32 0 0 1 45.44 0l243.52 243.52a32 32 0 0 1 0 45.44zM0-128h1024V896z m914.24 361.28L672-10.24a32 32 0 0 0-45.44 0l-135.68 135.68a32 32 0 1 0 45.12 45.12l112.96-112.96 221.12 221.12a32 32 0 1 0 45.12-45.12z"  horiz-adv-x="1024" />

    
    <glyph glyph-name="pickarea" unicode="&#58997;" d="M977.454545 802.909091h-46.545454v-791.272727a46.545455 46.545455 0 0 0-46.545455-46.545455H93.090909v-46.545454a46.545455 46.545455 0 0 1 46.545455-46.545455h837.818181a46.545455 46.545455 0 0 1 46.545455 46.545455V756.363636a46.545455 46.545455 0 0 1-46.545455 46.545455zM46.545455 849.454545l837.818181 0 0-837.818181-837.818181 0 0 837.818181ZM884.363636 896H46.545455a46.545455 46.545455 0 0 1-46.545455-46.545455v-837.818181a46.545455 46.545455 0 0 1 46.545455-46.545455h837.818181a46.545455 46.545455 0 0 1 46.545455 46.545455V849.454545a46.545455 46.545455 0 0 1-46.545455 46.545455z m0-837.818182a46.545455 46.545455 0 0 0-46.545454-46.545454H93.090909a46.545455 46.545455 0 0 0-46.545454 46.545454V802.909091a46.545455 46.545455 0 0 0 46.545454 46.545454h744.727273a46.545455 46.545455 0 0 0 46.545454-46.545454z"  horiz-adv-x="1024" />

    
    <glyph glyph-name="overlay" unicode="&#58998;" d="M977.454545 802.909091h-46.545454v-791.272727a46.545455 46.545455 0 0 0-46.545455-46.545455H93.090909v-46.545454a46.545455 46.545455 0 0 1 46.545455-46.545455h837.818181a46.545455 46.545455 0 0 1 46.545455 46.545455V756.363636a46.545455 46.545455 0 0 1-46.545455 46.545455zM46.545455 849.454545l837.818181 0 0-837.818181-837.818181 0 0 837.818181ZM884.363636 896H46.545455a46.545455 46.545455 0 0 1-46.545455-46.545455v-837.818181a46.545455 46.545455 0 0 1 46.545455-46.545455h837.818181a46.545455 46.545455 0 0 1 46.545455 46.545455V849.454545a46.545455 46.545455 0 0 1-46.545455 46.545455z m0-837.818182a46.545455 46.545455 0 0 0-46.545454-46.545454H93.090909a46.545455 46.545455 0 0 0-46.545454 46.545454V802.909091a46.545455 46.545455 0 0 0 46.545454 46.545454h744.727273a46.545455 46.545455 0 0 0 46.545454-46.545454z"  horiz-adv-x="1024" />

    
    <glyph glyph-name="preitem" unicode="&#58999;" d="M0 896v-1024h1462.857143V896z m1433.6-994.742857H29.257143V866.742857h1404.342857zM175.542857 764.342857h497.371429v-58.514286H175.542857zM175.542857 384h438.857143v-29.257143H175.542857zM175.542857 501.028571h906.971429v-29.257142H175.542857zM175.542857 618.057143h234.057143v-29.257143H175.542857zM175.542857 266.971429h1111.771429v-29.257143H175.542857zM175.542857 149.942857h292.571429v-29.257143H175.542857zM175.542857 32.914286h760.685714v-29.257143H175.542857z"  horiz-adv-x="1462" />

    
    <glyph glyph-name="preitem1" unicode="&#59000;" d="M0 896v-1024h1462.857143V896z m1433.6-994.742857H29.257143V866.742857h1404.342857zM117.028571 720.457143h351.085715v-29.257143H117.028571z"  horiz-adv-x="1462" />

    
    <glyph glyph-name="preitem2" unicode="&#59001;" d="M0 896v-1024h1462.857143V896z m1433.6-994.742857H29.257143V866.742857h1404.342857zM175.542857 778.971429h497.371429v-58.514286H175.542857zM848.457143 340.114286h438.857143v-29.257143H848.457143zM848.457143 457.142857h438.857143v-29.257143H848.457143zM848.457143 574.171429h438.857143v-29.257143H848.457143zM175.542857 223.085714h1111.771429v-29.257143H175.542857zM175.542857 106.057143h702.171429v-29.257143H175.542857zM175.542857-10.971429h702.171429v-29.257142H175.542857zM731.428571 544.914286v-204.8H204.8V544.914286h526.628571m29.257143 29.257143H175.542857v-263.314286h585.142857V574.171429zM1258.057143 106.057143v-117.028572H994.742857v117.028572h263.314286m29.257143 29.257143H965.485714v-175.542857h321.828572V135.314286z"  horiz-adv-x="1462" />

    
    <glyph glyph-name="preitem3" unicode="&#59002;" d="M0 896v-1024h1462.857143V896z m1433.6-994.742857H29.257143V866.742857h1404.342857zM482.742857 720.457143h497.371429v-58.514286H482.742857zM643.657143 603.428571h175.542857v-29.257142H643.657143zM175.542857 427.885714h1111.771429v-29.257143H175.542857zM175.542857 310.857143h1111.771429v-29.257143H175.542857zM175.542857 193.828571h1111.771429v-29.257142H175.542857zM175.542857 76.8h1111.771429v-29.257143H175.542857z"  horiz-adv-x="1462" />

    
    <glyph glyph-name="preitem4" unicode="&#59003;" d="M1258.057143 632.685714v-204.8H204.8V632.685714h1053.257143m29.257143 29.257143H175.542857v-263.314286h1111.771429V661.942857zM0 896v-1024h1462.857143V896z m1433.6-994.742857H29.257143V866.742857h1404.342857zM175.542857 778.971429h497.371429v-58.514286H175.542857zM175.542857 340.114286h351.085714v-29.257143H175.542857zM175.542857 223.085714h1111.771429v-29.257143H175.542857zM175.542857 106.057143h702.171429v-29.257143H175.542857zM175.542857-10.971429h1111.771429v-29.257142H175.542857z"  horiz-adv-x="1462" />

    


  </font>
</defs>
</svg>
