<?xml version="1.0" standalone="no"?><!DOCTYPE svg PUBLIC "-//W3C//DTD SVG 1.1//EN" "http://www.w3.org/Graphics/SVG/1.1/DTD/svg11.dtd"><svg t="1488001207278" class="icon" style="" viewBox="0 0 1024 1024" version="1.1" xmlns="http://www.w3.org/2000/svg" p-id="5218" xmlns:xlink="http://www.w3.org/1999/xlink" width="40" height="40"><defs><style type="text/css"></style></defs><path d="M914.24 617.28a32 32 0 0 0-45.12 0l-221.44 221.12-112.96-112.96a32 32 0 1 0-45.12 45.12l135.68 135.68a32 32 0 0 0 45.44 0l243.52-243.52a32 32 0 0 0 0-45.44z" fill="#FFFFFF" p-id="5219"></path><path d="M0 1024h1024V0z m914.24-361.28L672 906.24a32 32 0 0 1-45.44 0l-135.68-135.68a32 32 0 1 1 45.12-45.12l112.96 112.96 221.12-221.12a32 32 0 1 1 45.12 45.12z" fill="#1094FA" p-id="5220"></path></svg>