<?xml version="1.0" standalone="no"?>
<!DOCTYPE svg PUBLIC "-//W3C//DTD SVG 20010904//EN"
 "http://www.w3.org/TR/2001/REC-SVG-20010904/DTD/svg10.dtd">
<svg version="1.0" xmlns="http://www.w3.org/2000/svg"
 width="700.000000pt" height="700.000000pt" viewBox="0 0 700.000000 700.000000"
 preserveAspectRatio="xMidYMid meet">
<metadata>
Created by potrace 1.11, written by Peter Selinger 2001-2013
</metadata>
<g transform="translate(0.000000,700.000000) scale(0.100000,-0.100000)"
fill="#000000" stroke="none">
<path d="M0 4588 l0 -2412 106 170 c58 93 143 228 189 299 45 72 94 150 109
175 15 25 134 216 266 425 390 620 424 675 441 703 21 34 523 835 553 882 23
35 148 234 215 342 20 32 59 93 86 137 28 43 66 104 85 135 19 31 53 85 75
120 22 35 119 190 215 344 96 155 181 281 188 282 7 0 39 -17 70 -38 46 -31
345 -220 427 -269 11 -7 36 -21 56 -30 50 -25 64 -43 66 -82 1 -19 7 -39 13
-45 5 -5 10 -18 10 -28 0 -10 4 -26 10 -36 5 -9 35 -89 65 -177 31 -88 64
-182 75 -210 10 -27 48 -135 85 -240 36 -104 72 -206 80 -225 14 -34 56 -155
116 -330 16 -47 33 -94 38 -105 5 -11 14 -33 19 -50 25 -70 180 -507 248 -700
41 -115 91 -255 110 -310 20 -55 47 -129 60 -165 13 -36 24 -69 24 -74 0 -4 6
-22 14 -39 8 -18 44 -117 81 -222 101 -286 162 -457 174 -489 l11 -28 25 36
c14 20 25 39 25 42 0 3 10 20 23 37 12 18 36 54 53 82 47 77 233 374 269 430
18 28 61 96 96 153 101 161 124 199 321 512 102 162 313 500 470 750 157 250
333 531 392 623 58 92 106 170 106 172 0 2 13 24 29 48 17 23 172 270 345 548
174 277 320 511 326 519 35 51 80 123 80 127 0 3 13 25 30 50 l30 44 0 265 0
264 -3500 0 -3500 0 0 -2412z"/>
<path d="M6979 5042 c-9 -15 -155 -247 -324 -517 -170 -269 -320 -509 -334
-533 -14 -24 -31 -51 -36 -60 -6 -9 -35 -55 -65 -102 -30 -46 -59 -92 -65
-102 -5 -10 -64 -105 -131 -211 -67 -105 -228 -363 -359 -572 -131 -209 -257
-409 -280 -445 -48 -76 -514 -818 -595 -948 -177 -286 -296 -472 -302 -472 -4
0 -146 87 -314 193 -304 190 -306 192 -309 228 -1 19 -13 66 -28 105 -14 38
-49 134 -77 214 -28 80 -54 152 -57 160 -3 8 -7 20 -9 25 -1 6 -21 62 -44 125
-23 63 -55 151 -70 195 -239 672 -357 1004 -380 1070 -48 131 -163 456 -240
675 -39 113 -78 221 -86 240 -7 19 -61 170 -119 335 -58 165 -109 308 -113
318 -6 15 -17 3 -55 -60 -27 -43 -112 -180 -190 -304 -78 -124 -256 -407 -395
-630 -140 -222 -346 -550 -458 -729 -112 -179 -256 -408 -320 -510 -64 -102
-148 -237 -188 -300 -330 -526 -795 -1267 -856 -1365 -8 -14 -52 -84 -97 -156
l-83 -131 0 -389 0 -389 3500 0 3500 0 0 2535 c0 1394 -1 2535 -2 2535 -2 0
-10 -12 -19 -28z"/>
</g>
</svg>
